<?xml version="1.0" encoding="utf-8" standalone="no"?>
<!DOCTYPE svg PUBLIC "-//W3C//DTD SVG 1.1//EN"
  "http://www.w3.org/Graphics/SVG/1.1/DTD/svg11.dtd">
<!-- Created with matplotlib (http://matplotlib.org/) -->
<svg height="360pt" version="1.1" viewBox="0 0 576 360" width="576pt" xmlns="http://www.w3.org/2000/svg" xmlns:xlink="http://www.w3.org/1999/xlink">
 <defs>
  <style type="text/css">
*{stroke-linecap:butt;stroke-linejoin:round;}
  </style>
 </defs>
 <g id="figure_1">
  <g id="patch_1">
   <path d="M 0 360 
L 576 360 
L 576 0 
L 0 0 
z
" style="fill:#ffffff;"/>
  </g>
  <g id="axes_1">
   <g id="patch_2">
    <path d="M 51.05 234.903617 
L 562.68 234.903617 
L 562.68 26.88 
L 51.05 26.88 
z
" style="fill:#ffffff;"/>
   </g>
   <g id="patch_3">
    <path clip-path="url(#p9446eea88b)" d="M 74.305909 234.903617 
L 96.454394 234.903617 
L 96.454394 36.785887 
L 74.305909 36.785887 
z
" style="fill:#1f77b4;"/>
   </g>
   <g id="patch_4">
    <path clip-path="url(#p9446eea88b)" d="M 105.946602 234.903617 
L 128.095087 234.903617 
L 128.095087 164.079494 
L 105.946602 164.079494 
z
" style="fill:#1f77b4;"/>
   </g>
   <g id="patch_5">
    <path clip-path="url(#p9446eea88b)" d="M 137.587294 234.903617 
L 159.735779 234.903617 
L 159.735779 87.798236 
L 137.587294 87.798236 
z
" style="fill:#1f77b4;"/>
   </g>
   <g id="patch_6">
    <path clip-path="url(#p9446eea88b)" d="M 169.227987 234.903617 
L 191.376472 234.903617 
L 191.376472 121.37148 
L 169.227987 121.37148 
z
" style="fill:#1f77b4;"/>
   </g>
   <g id="patch_7">
    <path clip-path="url(#p9446eea88b)" d="M 200.86868 234.903617 
L 223.017165 234.903617 
L 223.017165 148.301256 
L 200.86868 148.301256 
z
" style="fill:#1f77b4;"/>
   </g>
   <g id="patch_8">
    <path clip-path="url(#p9446eea88b)" d="M 232.509372 234.903617 
L 254.657857 234.903617 
L 254.657857 154.707458 
L 232.509372 154.707458 
z
" style="fill:#1f77b4;"/>
   </g>
   <g id="patch_9">
    <path clip-path="url(#p9446eea88b)" d="M 264.150065 234.903617 
L 286.29855 234.903617 
L 286.29855 87.798236 
L 264.150065 87.798236 
z
" style="fill:#1f77b4;"/>
   </g>
   <g id="patch_10">
    <path clip-path="url(#p9446eea88b)" d="M 295.790758 234.903617 
L 317.939242 234.903617 
L 317.939242 191.36517 
L 295.790758 191.36517 
z
" style="fill:#1f77b4;"/>
   </g>
   <g id="patch_11">
    <path clip-path="url(#p9446eea88b)" d="M 327.43145 234.903617 
L 349.579935 234.903617 
L 349.579935 218.650845 
L 327.43145 218.650845 
z
" style="fill:#1f77b4;"/>
   </g>
   <g id="patch_12">
    <path clip-path="url(#p9446eea88b)" d="M 359.072143 234.903617 
L 381.220628 234.903617 
L 381.220628 129.08265 
L 359.072143 129.08265 
z
" style="fill:#1f77b4;"/>
   </g>
   <g id="patch_13">
    <path clip-path="url(#p9446eea88b)" d="M 390.712835 234.903617 
L 412.86132 234.903617 
L 412.86132 183.891267 
L 390.712835 183.891267 
z
" style="fill:#1f77b4;"/>
   </g>
   <g id="patch_14">
    <path clip-path="url(#p9446eea88b)" d="M 422.353528 234.903617 
L 444.502013 234.903617 
L 444.502013 142.369587 
L 422.353528 142.369587 
z
" style="fill:#1f77b4;"/>
   </g>
   <g id="patch_15">
    <path clip-path="url(#p9446eea88b)" d="M 453.994221 234.903617 
L 476.142706 234.903617 
L 476.142706 220.667612 
L 453.994221 220.667612 
z
" style="fill:#1f77b4;"/>
   </g>
   <g id="patch_16">
    <path clip-path="url(#p9446eea88b)" d="M 485.634913 234.903617 
L 507.783398 234.903617 
L 507.783398 158.978259 
L 485.634913 158.978259 
z
" style="fill:#1f77b4;"/>
   </g>
   <g id="patch_17">
    <path clip-path="url(#p9446eea88b)" d="M 517.275606 234.903617 
L 539.424091 234.903617 
L 539.424091 208.804275 
L 517.275606 208.804275 
z
" style="fill:#1f77b4;"/>
   </g>
   <g id="patch_18">
    <path clip-path="url(#p9446eea88b)" d="M 74.305909 234.903617 
L 96.454394 234.903617 
L 96.454394 165.265828 
L 74.305909 165.265828 
z
" style="fill:#ff7f0e;"/>
   </g>
   <g id="patch_19">
    <path clip-path="url(#p9446eea88b)" d="M 105.946602 234.903617 
L 128.095087 234.903617 
L 128.095087 206.787508 
L 105.946602 206.787508 
z
" style="fill:#ff7f0e;"/>
   </g>
   <g id="patch_20">
    <path clip-path="url(#p9446eea88b)" d="M 137.587294 234.903617 
L 159.735779 234.903617 
L 159.735779 148.301256 
L 137.587294 148.301256 
z
" style="fill:#ff7f0e;"/>
   </g>
   <g id="patch_21">
    <path clip-path="url(#p9446eea88b)" d="M 169.227987 234.903617 
L 191.376472 234.903617 
L 191.376472 163.723594 
L 169.227987 163.723594 
z
" style="fill:#ff7f0e;"/>
   </g>
   <g id="patch_22">
    <path clip-path="url(#p9446eea88b)" d="M 200.86868 234.903617 
L 223.017165 234.903617 
L 223.017165 178.434132 
L 200.86868 178.434132 
z
" style="fill:#ff7f0e;"/>
   </g>
   <g id="patch_23">
    <path clip-path="url(#p9446eea88b)" d="M 232.509372 234.903617 
L 254.657857 234.903617 
L 254.657857 195.280071 
L 232.509372 195.280071 
z
" style="fill:#ff7f0e;"/>
   </g>
   <g id="patch_24">
    <path clip-path="url(#p9446eea88b)" d="M 264.150065 234.903617 
L 286.29855 234.903617 
L 286.29855 184.484434 
L 264.150065 184.484434 
z
" style="fill:#ff7f0e;"/>
   </g>
   <g id="patch_25">
    <path clip-path="url(#p9446eea88b)" d="M 295.790758 234.903617 
L 317.939242 234.903617 
L 317.939242 213.430977 
L 295.790758 213.430977 
z
" style="fill:#ff7f0e;"/>
   </g>
   <g id="patch_26">
    <path clip-path="url(#p9446eea88b)" d="M 327.43145 234.903617 
L 349.579935 234.903617 
L 349.579935 231.344616 
L 327.43145 231.344616 
z
" style="fill:#ff7f0e;"/>
   </g>
   <g id="patch_27">
    <path clip-path="url(#p9446eea88b)" d="M 359.072143 234.903617 
L 381.220628 234.903617 
L 381.220628 202.872607 
L 359.072143 202.872607 
z
" style="fill:#ff7f0e;"/>
   </g>
   <g id="patch_28">
    <path clip-path="url(#p9446eea88b)" d="M 390.712835 234.903617 
L 412.86132 234.903617 
L 412.86132 213.54961 
L 390.712835 213.54961 
z
" style="fill:#ff7f0e;"/>
   </g>
   <g id="patch_29">
    <path clip-path="url(#p9446eea88b)" d="M 422.353528 234.903617 
L 444.502013 234.903617 
L 444.502013 179.145932 
L 422.353528 179.145932 
z
" style="fill:#ff7f0e;"/>
   </g>
   <g id="patch_30">
    <path clip-path="url(#p9446eea88b)" d="M 453.994221 234.903617 
L 476.142706 234.903617 
L 476.142706 225.175681 
L 453.994221 225.175681 
z
" style="fill:#ff7f0e;"/>
   </g>
   <g id="patch_31">
    <path clip-path="url(#p9446eea88b)" d="M 485.634913 234.903617 
L 507.783398 234.903617 
L 507.783398 212.363276 
L 485.634913 212.363276 
z
" style="fill:#ff7f0e;"/>
   </g>
   <g id="patch_32">
    <path clip-path="url(#p9446eea88b)" d="M 517.275606 234.903617 
L 539.424091 234.903617 
L 539.424091 225.057047 
L 517.275606 225.057047 
z
" style="fill:#ff7f0e;"/>
   </g>
   <g id="patch_33">
    <path clip-path="url(#p9446eea88b)" d="M 74.305909 234.903617 
L 96.454394 234.903617 
L 96.454394 195.754604 
L 74.305909 195.754604 
z
" style="fill:#2ca02c;"/>
   </g>
   <g id="patch_34">
    <path clip-path="url(#p9446eea88b)" d="M 105.946602 234.903617 
L 128.095087 234.903617 
L 128.095087 216.752711 
L 105.946602 216.752711 
z
" style="fill:#2ca02c;"/>
   </g>
   <g id="patch_35">
    <path clip-path="url(#p9446eea88b)" d="M 137.587294 234.903617 
L 159.735779 234.903617 
L 159.735779 169.892529 
L 137.587294 169.892529 
z
" style="fill:#2ca02c;"/>
   </g>
   <g id="patch_36">
    <path clip-path="url(#p9446eea88b)" d="M 169.227987 234.903617 
L 191.376472 234.903617 
L 191.376472 189.348402 
L 169.227987 189.348402 
z
" style="fill:#2ca02c;"/>
   </g>
   <g id="patch_37">
    <path clip-path="url(#p9446eea88b)" d="M 200.86868 234.903617 
L 223.017165 234.903617 
L 223.017165 192.43287 
L 200.86868 192.43287 
z
" style="fill:#2ca02c;"/>
   </g>
   <g id="patch_38">
    <path clip-path="url(#p9446eea88b)" d="M 232.509372 234.903617 
L 254.657857 234.903617 
L 254.657857 211.532843 
L 232.509372 211.532843 
z
" style="fill:#2ca02c;"/>
   </g>
   <g id="patch_39">
    <path clip-path="url(#p9446eea88b)" d="M 264.150065 234.903617 
L 286.29855 234.903617 
L 286.29855 204.414841 
L 264.150065 204.414841 
z
" style="fill:#2ca02c;"/>
   </g>
   <g id="patch_40">
    <path clip-path="url(#p9446eea88b)" d="M 295.790758 234.903617 
L 317.939242 234.903617 
L 317.939242 223.633447 
L 295.790758 223.633447 
z
" style="fill:#2ca02c;"/>
   </g>
   <g id="patch_41">
    <path clip-path="url(#p9446eea88b)" d="M 327.43145 234.903617 
L 349.579935 234.903617 
L 349.579935 233.24275 
L 327.43145 233.24275 
z
" style="fill:#2ca02c;"/>
   </g>
   <g id="patch_42">
    <path clip-path="url(#p9446eea88b)" d="M 359.072143 234.903617 
L 381.220628 234.903617 
L 381.220628 212.363276 
L 359.072143 212.363276 
z
" style="fill:#2ca02c;"/>
   </g>
   <g id="patch_43">
    <path clip-path="url(#p9446eea88b)" d="M 390.712835 234.903617 
L 412.86132 234.903617 
L 412.86132 223.04028 
L 390.712835 223.04028 
z
" style="fill:#2ca02c;"/>
   </g>
   <g id="patch_44">
    <path clip-path="url(#p9446eea88b)" d="M 422.353528 234.903617 
L 444.502013 234.903617 
L 444.502013 194.568271 
L 422.353528 194.568271 
z
" style="fill:#2ca02c;"/>
   </g>
   <g id="patch_45">
    <path clip-path="url(#p9446eea88b)" d="M 453.994221 234.903617 
L 476.142706 234.903617 
L 476.142706 228.260148 
L 453.994221 228.260148 
z
" style="fill:#2ca02c;"/>
   </g>
   <g id="patch_46">
    <path clip-path="url(#p9446eea88b)" d="M 485.634913 234.903617 
L 507.783398 234.903617 
L 507.783398 219.481279 
L 485.634913 219.481279 
z
" style="fill:#2ca02c;"/>
   </g>
   <g id="patch_47">
    <path clip-path="url(#p9446eea88b)" d="M 517.275606 234.903617 
L 539.424091 234.903617 
L 539.424091 232.412316 
L 517.275606 232.412316 
z
" style="fill:#2ca02c;"/>
   </g>
   <g id="matplotlib.axis_1">
    <g id="xtick_1">
     <g id="line2d_1">
      <defs>
       <path d="M 0 0 
L 0 3.5 
" id="m4fd388d1c2" style="stroke:#000000;stroke-width:0.8;"/>
      </defs>
      <g>
       <use style="stroke:#000000;stroke-width:0.8;" x="85.380152" xlink:href="#m4fd388d1c2" y="234.903617"/>
      </g>
     </g>
     <g id="text_1">
      <!-- Countries -->
      <defs>
       <path d="M 64.40625 67.28125 
L 64.40625 56.890625 
Q 59.421875 61.53125 53.78125 63.8125 
Q 48.140625 66.109375 41.796875 66.109375 
Q 29.296875 66.109375 22.65625 58.46875 
Q 16.015625 50.828125 16.015625 36.375 
Q 16.015625 21.96875 22.65625 14.328125 
Q 29.296875 6.6875 41.796875 6.6875 
Q 48.140625 6.6875 53.78125 8.984375 
Q 59.421875 11.28125 64.40625 15.921875 
L 64.40625 5.609375 
Q 59.234375 2.09375 53.4375 0.328125 
Q 47.65625 -1.421875 41.21875 -1.421875 
Q 24.65625 -1.421875 15.125 8.703125 
Q 5.609375 18.84375 5.609375 36.375 
Q 5.609375 53.953125 15.125 64.078125 
Q 24.65625 74.21875 41.21875 74.21875 
Q 47.75 74.21875 53.53125 72.484375 
Q 59.328125 70.75 64.40625 67.28125 
z
" id="DejaVuSans-43"/>
       <path d="M 30.609375 48.390625 
Q 23.390625 48.390625 19.1875 42.75 
Q 14.984375 37.109375 14.984375 27.296875 
Q 14.984375 17.484375 19.15625 11.84375 
Q 23.34375 6.203125 30.609375 6.203125 
Q 37.796875 6.203125 41.984375 11.859375 
Q 46.1875 17.53125 46.1875 27.296875 
Q 46.1875 37.015625 41.984375 42.703125 
Q 37.796875 48.390625 30.609375 48.390625 
z
M 30.609375 56 
Q 42.328125 56 49.015625 48.375 
Q 55.71875 40.765625 55.71875 27.296875 
Q 55.71875 13.875 49.015625 6.21875 
Q 42.328125 -1.421875 30.609375 -1.421875 
Q 18.84375 -1.421875 12.171875 6.21875 
Q 5.515625 13.875 5.515625 27.296875 
Q 5.515625 40.765625 12.171875 48.375 
Q 18.84375 56 30.609375 56 
z
" id="DejaVuSans-6f"/>
       <path d="M 8.5 21.578125 
L 8.5 54.6875 
L 17.484375 54.6875 
L 17.484375 21.921875 
Q 17.484375 14.15625 20.5 10.265625 
Q 23.53125 6.390625 29.59375 6.390625 
Q 36.859375 6.390625 41.078125 11.03125 
Q 45.3125 15.671875 45.3125 23.6875 
L 45.3125 54.6875 
L 54.296875 54.6875 
L 54.296875 0 
L 45.3125 0 
L 45.3125 8.40625 
Q 42.046875 3.421875 37.71875 1 
Q 33.40625 -1.421875 27.6875 -1.421875 
Q 18.265625 -1.421875 13.375 4.4375 
Q 8.5 10.296875 8.5 21.578125 
z
M 31.109375 56 
z
" id="DejaVuSans-75"/>
       <path d="M 54.890625 33.015625 
L 54.890625 0 
L 45.90625 0 
L 45.90625 32.71875 
Q 45.90625 40.484375 42.875 44.328125 
Q 39.84375 48.1875 33.796875 48.1875 
Q 26.515625 48.1875 22.3125 43.546875 
Q 18.109375 38.921875 18.109375 30.90625 
L 18.109375 0 
L 9.078125 0 
L 9.078125 54.6875 
L 18.109375 54.6875 
L 18.109375 46.1875 
Q 21.34375 51.125 25.703125 53.5625 
Q 30.078125 56 35.796875 56 
Q 45.21875 56 50.046875 50.171875 
Q 54.890625 44.34375 54.890625 33.015625 
z
" id="DejaVuSans-6e"/>
       <path d="M 18.3125 70.21875 
L 18.3125 54.6875 
L 36.8125 54.6875 
L 36.8125 47.703125 
L 18.3125 47.703125 
L 18.3125 18.015625 
Q 18.3125 11.328125 20.140625 9.421875 
Q 21.96875 7.515625 27.59375 7.515625 
L 36.8125 7.515625 
L 36.8125 0 
L 27.59375 0 
Q 17.1875 0 13.234375 3.875 
Q 9.28125 7.765625 9.28125 18.015625 
L 9.28125 47.703125 
L 2.6875 47.703125 
L 2.6875 54.6875 
L 9.28125 54.6875 
L 9.28125 70.21875 
z
" id="DejaVuSans-74"/>
       <path d="M 41.109375 46.296875 
Q 39.59375 47.171875 37.8125 47.578125 
Q 36.03125 48 33.890625 48 
Q 26.265625 48 22.1875 43.046875 
Q 18.109375 38.09375 18.109375 28.8125 
L 18.109375 0 
L 9.078125 0 
L 9.078125 54.6875 
L 18.109375 54.6875 
L 18.109375 46.1875 
Q 20.953125 51.171875 25.484375 53.578125 
Q 30.03125 56 36.53125 56 
Q 37.453125 56 38.578125 55.875 
Q 39.703125 55.765625 41.0625 55.515625 
z
" id="DejaVuSans-72"/>
       <path d="M 9.421875 54.6875 
L 18.40625 54.6875 
L 18.40625 0 
L 9.421875 0 
z
M 9.421875 75.984375 
L 18.40625 75.984375 
L 18.40625 64.59375 
L 9.421875 64.59375 
z
" id="DejaVuSans-69"/>
       <path d="M 56.203125 29.59375 
L 56.203125 25.203125 
L 14.890625 25.203125 
Q 15.484375 15.921875 20.484375 11.0625 
Q 25.484375 6.203125 34.421875 6.203125 
Q 39.59375 6.203125 44.453125 7.46875 
Q 49.3125 8.734375 54.109375 11.28125 
L 54.109375 2.78125 
Q 49.265625 0.734375 44.1875 -0.34375 
Q 39.109375 -1.421875 33.890625 -1.421875 
Q 20.796875 -1.421875 13.15625 6.1875 
Q 5.515625 13.8125 5.515625 26.8125 
Q 5.515625 40.234375 12.765625 48.109375 
Q 20.015625 56 32.328125 56 
Q 43.359375 56 49.78125 48.890625 
Q 56.203125 41.796875 56.203125 29.59375 
z
M 47.21875 32.234375 
Q 47.125 39.59375 43.09375 43.984375 
Q 39.0625 48.390625 32.421875 48.390625 
Q 24.90625 48.390625 20.390625 44.140625 
Q 15.875 39.890625 15.1875 32.171875 
z
" id="DejaVuSans-65"/>
       <path d="M 44.28125 53.078125 
L 44.28125 44.578125 
Q 40.484375 46.53125 36.375 47.5 
Q 32.28125 48.484375 27.875 48.484375 
Q 21.1875 48.484375 17.84375 46.4375 
Q 14.5 44.390625 14.5 40.28125 
Q 14.5 37.15625 16.890625 35.375 
Q 19.28125 33.59375 26.515625 31.984375 
L 29.59375 31.296875 
Q 39.15625 29.25 43.1875 25.515625 
Q 47.21875 21.78125 47.21875 15.09375 
Q 47.21875 7.46875 41.1875 3.015625 
Q 35.15625 -1.421875 24.609375 -1.421875 
Q 20.21875 -1.421875 15.453125 -0.5625 
Q 10.6875 0.296875 5.421875 2 
L 5.421875 11.28125 
Q 10.40625 8.6875 15.234375 7.390625 
Q 20.0625 6.109375 24.8125 6.109375 
Q 31.15625 6.109375 34.5625 8.28125 
Q 37.984375 10.453125 37.984375 14.40625 
Q 37.984375 18.0625 35.515625 20.015625 
Q 33.0625 21.96875 24.703125 23.78125 
L 21.578125 24.515625 
Q 13.234375 26.265625 9.515625 29.90625 
Q 5.8125 33.546875 5.8125 39.890625 
Q 5.8125 47.609375 11.28125 51.796875 
Q 16.75 56 26.8125 56 
Q 31.78125 56 36.171875 55.265625 
Q 40.578125 54.546875 44.28125 53.078125 
z
" id="DejaVuSans-73"/>
      </defs>
      <g transform="translate(50.004925 281.181189)rotate(-45)scale(0.1 -0.1)">
       <use xlink:href="#DejaVuSans-43"/>
       <use x="69.824219" xlink:href="#DejaVuSans-6f"/>
       <use x="131.005859" xlink:href="#DejaVuSans-75"/>
       <use x="194.384766" xlink:href="#DejaVuSans-6e"/>
       <use x="257.763672" xlink:href="#DejaVuSans-74"/>
       <use x="296.972656" xlink:href="#DejaVuSans-72"/>
       <use x="338.085938" xlink:href="#DejaVuSans-69"/>
       <use x="365.869141" xlink:href="#DejaVuSans-65"/>
       <use x="427.392578" xlink:href="#DejaVuSans-73"/>
      </g>
     </g>
    </g>
    <g id="xtick_2">
     <g id="line2d_2">
      <g>
       <use style="stroke:#000000;stroke-width:0.8;" x="117.020844" xlink:href="#m4fd388d1c2" y="234.903617"/>
      </g>
     </g>
     <g id="text_2">
      <!-- Cities -->
      <g transform="translate(95.877247 266.94956)rotate(-45)scale(0.1 -0.1)">
       <use xlink:href="#DejaVuSans-43"/>
       <use x="69.824219" xlink:href="#DejaVuSans-69"/>
       <use x="97.607422" xlink:href="#DejaVuSans-74"/>
       <use x="136.816406" xlink:href="#DejaVuSans-69"/>
       <use x="164.599609" xlink:href="#DejaVuSans-65"/>
       <use x="226.123047" xlink:href="#DejaVuSans-73"/>
      </g>
     </g>
    </g>
    <g id="xtick_3">
     <g id="line2d_3">
      <g>
       <use style="stroke:#000000;stroke-width:0.8;" x="148.661537" xlink:href="#m4fd388d1c2" y="234.903617"/>
      </g>
     </g>
     <g id="text_3">
      <!-- People -->
      <defs>
       <path d="M 19.671875 64.796875 
L 19.671875 37.40625 
L 32.078125 37.40625 
Q 38.96875 37.40625 42.71875 40.96875 
Q 46.484375 44.53125 46.484375 51.125 
Q 46.484375 57.671875 42.71875 61.234375 
Q 38.96875 64.796875 32.078125 64.796875 
z
M 9.8125 72.90625 
L 32.078125 72.90625 
Q 44.34375 72.90625 50.609375 67.359375 
Q 56.890625 61.8125 56.890625 51.125 
Q 56.890625 40.328125 50.609375 34.8125 
Q 44.34375 29.296875 32.078125 29.296875 
L 19.671875 29.296875 
L 19.671875 0 
L 9.8125 0 
z
" id="DejaVuSans-50"/>
       <path d="M 18.109375 8.203125 
L 18.109375 -20.796875 
L 9.078125 -20.796875 
L 9.078125 54.6875 
L 18.109375 54.6875 
L 18.109375 46.390625 
Q 20.953125 51.265625 25.265625 53.625 
Q 29.59375 56 35.59375 56 
Q 45.5625 56 51.78125 48.09375 
Q 58.015625 40.1875 58.015625 27.296875 
Q 58.015625 14.40625 51.78125 6.484375 
Q 45.5625 -1.421875 35.59375 -1.421875 
Q 29.59375 -1.421875 25.265625 0.953125 
Q 20.953125 3.328125 18.109375 8.203125 
z
M 48.6875 27.296875 
Q 48.6875 37.203125 44.609375 42.84375 
Q 40.53125 48.484375 33.40625 48.484375 
Q 26.265625 48.484375 22.1875 42.84375 
Q 18.109375 37.203125 18.109375 27.296875 
Q 18.109375 17.390625 22.1875 11.75 
Q 26.265625 6.109375 33.40625 6.109375 
Q 40.53125 6.109375 44.609375 11.75 
Q 48.6875 17.390625 48.6875 27.296875 
z
" id="DejaVuSans-70"/>
       <path d="M 9.421875 75.984375 
L 18.40625 75.984375 
L 18.40625 0 
L 9.421875 0 
z
" id="DejaVuSans-6c"/>
      </defs>
      <g transform="translate(123.448761 271.018739)rotate(-45)scale(0.1 -0.1)">
       <use xlink:href="#DejaVuSans-50"/>
       <use x="60.255859" xlink:href="#DejaVuSans-65"/>
       <use x="121.779297" xlink:href="#DejaVuSans-6f"/>
       <use x="182.960938" xlink:href="#DejaVuSans-70"/>
       <use x="246.4375" xlink:href="#DejaVuSans-6c"/>
       <use x="274.220703" xlink:href="#DejaVuSans-65"/>
      </g>
     </g>
    </g>
    <g id="xtick_4">
     <g id="line2d_4">
      <g>
       <use style="stroke:#000000;stroke-width:0.8;" x="180.302229" xlink:href="#m4fd388d1c2" y="234.903617"/>
      </g>
     </g>
     <g id="text_4">
      <!-- Singers -->
      <defs>
       <path d="M 53.515625 70.515625 
L 53.515625 60.890625 
Q 47.90625 63.578125 42.921875 64.890625 
Q 37.9375 66.21875 33.296875 66.21875 
Q 25.25 66.21875 20.875 63.09375 
Q 16.5 59.96875 16.5 54.203125 
Q 16.5 49.359375 19.40625 46.890625 
Q 22.3125 44.4375 30.421875 42.921875 
L 36.375 41.703125 
Q 47.40625 39.59375 52.65625 34.296875 
Q 57.90625 29 57.90625 20.125 
Q 57.90625 9.515625 50.796875 4.046875 
Q 43.703125 -1.421875 29.984375 -1.421875 
Q 24.8125 -1.421875 18.96875 -0.25 
Q 13.140625 0.921875 6.890625 3.21875 
L 6.890625 13.375 
Q 12.890625 10.015625 18.65625 8.296875 
Q 24.421875 6.59375 29.984375 6.59375 
Q 38.421875 6.59375 43.015625 9.90625 
Q 47.609375 13.234375 47.609375 19.390625 
Q 47.609375 24.75 44.3125 27.78125 
Q 41.015625 30.8125 33.5 32.328125 
L 27.484375 33.5 
Q 16.453125 35.6875 11.515625 40.375 
Q 6.59375 45.0625 6.59375 53.421875 
Q 6.59375 63.09375 13.40625 68.65625 
Q 20.21875 74.21875 32.171875 74.21875 
Q 37.3125 74.21875 42.625 73.28125 
Q 47.953125 72.359375 53.515625 70.515625 
z
" id="DejaVuSans-53"/>
       <path d="M 45.40625 27.984375 
Q 45.40625 37.75 41.375 43.109375 
Q 37.359375 48.484375 30.078125 48.484375 
Q 22.859375 48.484375 18.828125 43.109375 
Q 14.796875 37.75 14.796875 27.984375 
Q 14.796875 18.265625 18.828125 12.890625 
Q 22.859375 7.515625 30.078125 7.515625 
Q 37.359375 7.515625 41.375 12.890625 
Q 45.40625 18.265625 45.40625 27.984375 
z
M 54.390625 6.78125 
Q 54.390625 -7.171875 48.1875 -13.984375 
Q 42 -20.796875 29.203125 -20.796875 
Q 24.46875 -20.796875 20.265625 -20.09375 
Q 16.0625 -19.390625 12.109375 -17.921875 
L 12.109375 -9.1875 
Q 16.0625 -11.328125 19.921875 -12.34375 
Q 23.78125 -13.375 27.78125 -13.375 
Q 36.625 -13.375 41.015625 -8.765625 
Q 45.40625 -4.15625 45.40625 5.171875 
L 45.40625 9.625 
Q 42.625 4.78125 38.28125 2.390625 
Q 33.9375 0 27.875 0 
Q 17.828125 0 11.671875 7.65625 
Q 5.515625 15.328125 5.515625 27.984375 
Q 5.515625 40.671875 11.671875 48.328125 
Q 17.828125 56 27.875 56 
Q 33.9375 56 38.28125 53.609375 
Q 42.625 51.21875 45.40625 46.390625 
L 45.40625 54.6875 
L 54.390625 54.6875 
z
" id="DejaVuSans-67"/>
      </defs>
      <g transform="translate(152.466529 273.641663)rotate(-45)scale(0.1 -0.1)">
       <use xlink:href="#DejaVuSans-53"/>
       <use x="63.476562" xlink:href="#DejaVuSans-69"/>
       <use x="91.259766" xlink:href="#DejaVuSans-6e"/>
       <use x="154.638672" xlink:href="#DejaVuSans-67"/>
       <use x="218.115234" xlink:href="#DejaVuSans-65"/>
       <use x="279.638672" xlink:href="#DejaVuSans-72"/>
       <use x="320.751953" xlink:href="#DejaVuSans-73"/>
      </g>
     </g>
    </g>
    <g id="xtick_5">
     <g id="line2d_5">
      <g>
       <use style="stroke:#000000;stroke-width:0.8;" x="211.942922" xlink:href="#m4fd388d1c2" y="234.903617"/>
      </g>
     </g>
     <g id="text_5">
      <!-- Actors -->
      <defs>
       <path d="M 34.1875 63.1875 
L 20.796875 26.90625 
L 47.609375 26.90625 
z
M 28.609375 72.90625 
L 39.796875 72.90625 
L 67.578125 0 
L 57.328125 0 
L 50.6875 18.703125 
L 17.828125 18.703125 
L 11.1875 0 
L 0.78125 0 
z
" id="DejaVuSans-41"/>
       <path d="M 48.78125 52.59375 
L 48.78125 44.1875 
Q 44.96875 46.296875 41.140625 47.34375 
Q 37.3125 48.390625 33.40625 48.390625 
Q 24.65625 48.390625 19.8125 42.84375 
Q 14.984375 37.3125 14.984375 27.296875 
Q 14.984375 17.28125 19.8125 11.734375 
Q 24.65625 6.203125 33.40625 6.203125 
Q 37.3125 6.203125 41.140625 7.25 
Q 44.96875 8.296875 48.78125 10.40625 
L 48.78125 2.09375 
Q 45.015625 0.34375 40.984375 -0.53125 
Q 36.96875 -1.421875 32.421875 -1.421875 
Q 20.0625 -1.421875 12.78125 6.34375 
Q 5.515625 14.109375 5.515625 27.296875 
Q 5.515625 40.671875 12.859375 48.328125 
Q 20.21875 56 33.015625 56 
Q 37.15625 56 41.109375 55.140625 
Q 45.0625 54.296875 48.78125 52.59375 
z
" id="DejaVuSans-63"/>
      </defs>
      <g transform="translate(188.059286 269.689599)rotate(-45)scale(0.1 -0.1)">
       <use xlink:href="#DejaVuSans-41"/>
       <use x="68.392578" xlink:href="#DejaVuSans-63"/>
       <use x="123.373047" xlink:href="#DejaVuSans-74"/>
       <use x="162.582031" xlink:href="#DejaVuSans-6f"/>
       <use x="223.763672" xlink:href="#DejaVuSans-72"/>
       <use x="264.876953" xlink:href="#DejaVuSans-73"/>
      </g>
     </g>
    </g>
    <g id="xtick_6">
     <g id="line2d_6">
      <g>
       <use style="stroke:#000000;stroke-width:0.8;" x="243.583615" xlink:href="#m4fd388d1c2" y="234.903617"/>
      </g>
     </g>
     <g id="text_6">
      <!-- Sportsmen -->
      <defs>
       <path d="M 52 44.1875 
Q 55.375 50.25 60.0625 53.125 
Q 64.75 56 71.09375 56 
Q 79.640625 56 84.28125 50.015625 
Q 88.921875 44.046875 88.921875 33.015625 
L 88.921875 0 
L 79.890625 0 
L 79.890625 32.71875 
Q 79.890625 40.578125 77.09375 44.375 
Q 74.3125 48.1875 68.609375 48.1875 
Q 61.625 48.1875 57.5625 43.546875 
Q 53.515625 38.921875 53.515625 30.90625 
L 53.515625 0 
L 44.484375 0 
L 44.484375 32.71875 
Q 44.484375 40.625 41.703125 44.40625 
Q 38.921875 48.1875 33.109375 48.1875 
Q 26.21875 48.1875 22.15625 43.53125 
Q 18.109375 38.875 18.109375 30.90625 
L 18.109375 0 
L 9.078125 0 
L 9.078125 54.6875 
L 18.109375 54.6875 
L 18.109375 46.1875 
Q 21.1875 51.21875 25.484375 53.609375 
Q 29.78125 56 35.6875 56 
Q 41.65625 56 45.828125 52.96875 
Q 50 49.953125 52 44.1875 
z
" id="DejaVuSans-6d"/>
      </defs>
      <g transform="translate(203.725994 285.663583)rotate(-45)scale(0.1 -0.1)">
       <use xlink:href="#DejaVuSans-53"/>
       <use x="63.476562" xlink:href="#DejaVuSans-70"/>
       <use x="126.953125" xlink:href="#DejaVuSans-6f"/>
       <use x="188.134766" xlink:href="#DejaVuSans-72"/>
       <use x="229.248047" xlink:href="#DejaVuSans-74"/>
       <use x="268.457031" xlink:href="#DejaVuSans-73"/>
       <use x="320.556641" xlink:href="#DejaVuSans-6d"/>
       <use x="417.96875" xlink:href="#DejaVuSans-65"/>
       <use x="479.492188" xlink:href="#DejaVuSans-6e"/>
      </g>
     </g>
    </g>
    <g id="xtick_7">
     <g id="line2d_7">
      <g>
       <use style="stroke:#000000;stroke-width:0.8;" x="275.224307" xlink:href="#m4fd388d1c2" y="234.903617"/>
      </g>
     </g>
     <g id="text_7">
      <!-- Modern political leaders -->
      <defs>
       <path d="M 9.8125 72.90625 
L 24.515625 72.90625 
L 43.109375 23.296875 
L 61.8125 72.90625 
L 76.515625 72.90625 
L 76.515625 0 
L 66.890625 0 
L 66.890625 64.015625 
L 48.09375 14.015625 
L 38.1875 14.015625 
L 19.390625 64.015625 
L 19.390625 0 
L 9.8125 0 
z
" id="DejaVuSans-4d"/>
       <path d="M 45.40625 46.390625 
L 45.40625 75.984375 
L 54.390625 75.984375 
L 54.390625 0 
L 45.40625 0 
L 45.40625 8.203125 
Q 42.578125 3.328125 38.25 0.953125 
Q 33.9375 -1.421875 27.875 -1.421875 
Q 17.96875 -1.421875 11.734375 6.484375 
Q 5.515625 14.40625 5.515625 27.296875 
Q 5.515625 40.1875 11.734375 48.09375 
Q 17.96875 56 27.875 56 
Q 33.9375 56 38.25 53.625 
Q 42.578125 51.265625 45.40625 46.390625 
z
M 14.796875 27.296875 
Q 14.796875 17.390625 18.875 11.75 
Q 22.953125 6.109375 30.078125 6.109375 
Q 37.203125 6.109375 41.296875 11.75 
Q 45.40625 17.390625 45.40625 27.296875 
Q 45.40625 37.203125 41.296875 42.84375 
Q 37.203125 48.484375 30.078125 48.484375 
Q 22.953125 48.484375 18.875 42.84375 
Q 14.796875 37.203125 14.796875 27.296875 
z
" id="DejaVuSans-64"/>
       <path id="DejaVuSans-20"/>
       <path d="M 34.28125 27.484375 
Q 23.390625 27.484375 19.1875 25 
Q 14.984375 22.515625 14.984375 16.5 
Q 14.984375 11.71875 18.140625 8.90625 
Q 21.296875 6.109375 26.703125 6.109375 
Q 34.1875 6.109375 38.703125 11.40625 
Q 43.21875 16.703125 43.21875 25.484375 
L 43.21875 27.484375 
z
M 52.203125 31.203125 
L 52.203125 0 
L 43.21875 0 
L 43.21875 8.296875 
Q 40.140625 3.328125 35.546875 0.953125 
Q 30.953125 -1.421875 24.3125 -1.421875 
Q 15.921875 -1.421875 10.953125 3.296875 
Q 6 8.015625 6 15.921875 
Q 6 25.140625 12.171875 29.828125 
Q 18.359375 34.515625 30.609375 34.515625 
L 43.21875 34.515625 
L 43.21875 35.40625 
Q 43.21875 41.609375 39.140625 45 
Q 35.0625 48.390625 27.6875 48.390625 
Q 23 48.390625 18.546875 47.265625 
Q 14.109375 46.140625 10.015625 43.890625 
L 10.015625 52.203125 
Q 14.9375 54.109375 19.578125 55.046875 
Q 24.21875 56 28.609375 56 
Q 40.484375 56 46.34375 49.84375 
Q 52.203125 43.703125 52.203125 31.203125 
z
" id="DejaVuSans-61"/>
      </defs>
      <g transform="translate(188.858948 332.171322)rotate(-45)scale(0.1 -0.1)">
       <use xlink:href="#DejaVuSans-4d"/>
       <use x="86.279297" xlink:href="#DejaVuSans-6f"/>
       <use x="147.460938" xlink:href="#DejaVuSans-64"/>
       <use x="210.9375" xlink:href="#DejaVuSans-65"/>
       <use x="272.460938" xlink:href="#DejaVuSans-72"/>
       <use x="313.558594" xlink:href="#DejaVuSans-6e"/>
       <use x="376.9375" xlink:href="#DejaVuSans-20"/>
       <use x="408.724609" xlink:href="#DejaVuSans-70"/>
       <use x="472.201172" xlink:href="#DejaVuSans-6f"/>
       <use x="533.382812" xlink:href="#DejaVuSans-6c"/>
       <use x="561.166016" xlink:href="#DejaVuSans-69"/>
       <use x="588.949219" xlink:href="#DejaVuSans-74"/>
       <use x="628.158203" xlink:href="#DejaVuSans-69"/>
       <use x="655.941406" xlink:href="#DejaVuSans-63"/>
       <use x="710.921875" xlink:href="#DejaVuSans-61"/>
       <use x="772.201172" xlink:href="#DejaVuSans-6c"/>
       <use x="799.984375" xlink:href="#DejaVuSans-20"/>
       <use x="831.771484" xlink:href="#DejaVuSans-6c"/>
       <use x="859.554688" xlink:href="#DejaVuSans-65"/>
       <use x="921.078125" xlink:href="#DejaVuSans-61"/>
       <use x="982.357422" xlink:href="#DejaVuSans-64"/>
       <use x="1045.833984" xlink:href="#DejaVuSans-65"/>
       <use x="1107.357422" xlink:href="#DejaVuSans-72"/>
       <use x="1148.470703" xlink:href="#DejaVuSans-73"/>
      </g>
     </g>
    </g>
    <g id="xtick_8">
     <g id="line2d_8">
      <g>
       <use style="stroke:#000000;stroke-width:0.8;" x="306.865" xlink:href="#m4fd388d1c2" y="234.903617"/>
      </g>
     </g>
     <g id="text_8">
      <!-- Pre-modern people -->
      <defs>
       <path d="M 4.890625 31.390625 
L 31.203125 31.390625 
L 31.203125 23.390625 
L 4.890625 23.390625 
z
" id="DejaVuSans-2d"/>
      </defs>
      <g transform="translate(237.665763 315.0052)rotate(-45)scale(0.1 -0.1)">
       <use xlink:href="#DejaVuSans-50"/>
       <use x="60.287109" xlink:href="#DejaVuSans-72"/>
       <use x="101.369141" xlink:href="#DejaVuSans-65"/>
       <use x="162.892578" xlink:href="#DejaVuSans-2d"/>
       <use x="198.976562" xlink:href="#DejaVuSans-6d"/>
       <use x="296.388672" xlink:href="#DejaVuSans-6f"/>
       <use x="357.570312" xlink:href="#DejaVuSans-64"/>
       <use x="421.046875" xlink:href="#DejaVuSans-65"/>
       <use x="482.570312" xlink:href="#DejaVuSans-72"/>
       <use x="523.667969" xlink:href="#DejaVuSans-6e"/>
       <use x="587.046875" xlink:href="#DejaVuSans-20"/>
       <use x="618.833984" xlink:href="#DejaVuSans-70"/>
       <use x="682.310547" xlink:href="#DejaVuSans-65"/>
       <use x="743.833984" xlink:href="#DejaVuSans-6f"/>
       <use x="805.015625" xlink:href="#DejaVuSans-70"/>
       <use x="868.492188" xlink:href="#DejaVuSans-6c"/>
       <use x="896.275391" xlink:href="#DejaVuSans-65"/>
      </g>
     </g>
    </g>
    <g id="xtick_9">
     <g id="line2d_9">
      <g>
       <use style="stroke:#000000;stroke-width:0.8;" x="338.505693" xlink:href="#m4fd388d1c2" y="234.903617"/>
      </g>
     </g>
     <g id="text_9">
      <!-- 3rd-millenium people -->
      <defs>
       <path d="M 40.578125 39.3125 
Q 47.65625 37.796875 51.625 33 
Q 55.609375 28.21875 55.609375 21.1875 
Q 55.609375 10.40625 48.1875 4.484375 
Q 40.765625 -1.421875 27.09375 -1.421875 
Q 22.515625 -1.421875 17.65625 -0.515625 
Q 12.796875 0.390625 7.625 2.203125 
L 7.625 11.71875 
Q 11.71875 9.328125 16.59375 8.109375 
Q 21.484375 6.890625 26.8125 6.890625 
Q 36.078125 6.890625 40.9375 10.546875 
Q 45.796875 14.203125 45.796875 21.1875 
Q 45.796875 27.640625 41.28125 31.265625 
Q 36.765625 34.90625 28.71875 34.90625 
L 20.21875 34.90625 
L 20.21875 43.015625 
L 29.109375 43.015625 
Q 36.375 43.015625 40.234375 45.921875 
Q 44.09375 48.828125 44.09375 54.296875 
Q 44.09375 59.90625 40.109375 62.90625 
Q 36.140625 65.921875 28.71875 65.921875 
Q 24.65625 65.921875 20.015625 65.03125 
Q 15.375 64.15625 9.8125 62.3125 
L 9.8125 71.09375 
Q 15.4375 72.65625 20.34375 73.4375 
Q 25.25 74.21875 29.59375 74.21875 
Q 40.828125 74.21875 47.359375 69.109375 
Q 53.90625 64.015625 53.90625 55.328125 
Q 53.90625 49.265625 50.4375 45.09375 
Q 46.96875 40.921875 40.578125 39.3125 
z
" id="DejaVuSans-33"/>
      </defs>
      <g transform="translate(261.425529 322.886126)rotate(-45)scale(0.1 -0.1)">
       <use xlink:href="#DejaVuSans-33"/>
       <use x="63.623047" xlink:href="#DejaVuSans-72"/>
       <use x="104.720703" xlink:href="#DejaVuSans-64"/>
       <use x="168.197266" xlink:href="#DejaVuSans-2d"/>
       <use x="204.28125" xlink:href="#DejaVuSans-6d"/>
       <use x="301.693359" xlink:href="#DejaVuSans-69"/>
       <use x="329.476562" xlink:href="#DejaVuSans-6c"/>
       <use x="357.259766" xlink:href="#DejaVuSans-6c"/>
       <use x="385.042969" xlink:href="#DejaVuSans-65"/>
       <use x="446.566406" xlink:href="#DejaVuSans-6e"/>
       <use x="509.945312" xlink:href="#DejaVuSans-69"/>
       <use x="537.728516" xlink:href="#DejaVuSans-75"/>
       <use x="601.107422" xlink:href="#DejaVuSans-6d"/>
       <use x="698.519531" xlink:href="#DejaVuSans-20"/>
       <use x="730.306641" xlink:href="#DejaVuSans-70"/>
       <use x="793.783203" xlink:href="#DejaVuSans-65"/>
       <use x="855.306641" xlink:href="#DejaVuSans-6f"/>
       <use x="916.488281" xlink:href="#DejaVuSans-70"/>
       <use x="979.964844" xlink:href="#DejaVuSans-6c"/>
       <use x="1007.748047" xlink:href="#DejaVuSans-65"/>
      </g>
     </g>
    </g>
    <g id="xtick_10">
     <g id="line2d_10">
      <g>
       <use style="stroke:#000000;stroke-width:0.8;" x="370.146385" xlink:href="#m4fd388d1c2" y="234.903617"/>
      </g>
     </g>
     <g id="text_10">
      <!-- Music bands -->
      <defs>
       <path d="M 48.6875 27.296875 
Q 48.6875 37.203125 44.609375 42.84375 
Q 40.53125 48.484375 33.40625 48.484375 
Q 26.265625 48.484375 22.1875 42.84375 
Q 18.109375 37.203125 18.109375 27.296875 
Q 18.109375 17.390625 22.1875 11.75 
Q 26.265625 6.109375 33.40625 6.109375 
Q 40.53125 6.109375 44.609375 11.75 
Q 48.6875 17.390625 48.6875 27.296875 
z
M 18.109375 46.390625 
Q 20.953125 51.265625 25.265625 53.625 
Q 29.59375 56 35.59375 56 
Q 45.5625 56 51.78125 48.09375 
Q 58.015625 40.1875 58.015625 27.296875 
Q 58.015625 14.40625 51.78125 6.484375 
Q 45.5625 -1.421875 35.59375 -1.421875 
Q 29.59375 -1.421875 25.265625 0.953125 
Q 20.953125 3.328125 18.109375 8.203125 
L 18.109375 0 
L 9.078125 0 
L 9.078125 75.984375 
L 18.109375 75.984375 
z
" id="DejaVuSans-62"/>
      </defs>
      <g transform="translate(324.834099 291.118249)rotate(-45)scale(0.1 -0.1)">
       <use xlink:href="#DejaVuSans-4d"/>
       <use x="86.279297" xlink:href="#DejaVuSans-75"/>
       <use x="149.658203" xlink:href="#DejaVuSans-73"/>
       <use x="201.757812" xlink:href="#DejaVuSans-69"/>
       <use x="229.541016" xlink:href="#DejaVuSans-63"/>
       <use x="284.521484" xlink:href="#DejaVuSans-20"/>
       <use x="316.308594" xlink:href="#DejaVuSans-62"/>
       <use x="379.785156" xlink:href="#DejaVuSans-61"/>
       <use x="441.064453" xlink:href="#DejaVuSans-6e"/>
       <use x="504.443359" xlink:href="#DejaVuSans-64"/>
       <use x="567.919922" xlink:href="#DejaVuSans-73"/>
      </g>
     </g>
    </g>
    <g id="xtick_11">
     <g id="line2d_11">
      <g>
       <use style="stroke:#000000;stroke-width:0.8;" x="401.787078" xlink:href="#m4fd388d1c2" y="234.903617"/>
      </g>
     </g>
     <g id="text_11">
      <!-- Sports teams -->
      <g transform="translate(353.37457 294.21847)rotate(-45)scale(0.1 -0.1)">
       <use xlink:href="#DejaVuSans-53"/>
       <use x="63.476562" xlink:href="#DejaVuSans-70"/>
       <use x="126.953125" xlink:href="#DejaVuSans-6f"/>
       <use x="188.134766" xlink:href="#DejaVuSans-72"/>
       <use x="229.248047" xlink:href="#DejaVuSans-74"/>
       <use x="268.457031" xlink:href="#DejaVuSans-73"/>
       <use x="320.556641" xlink:href="#DejaVuSans-20"/>
       <use x="352.34375" xlink:href="#DejaVuSans-74"/>
       <use x="391.552734" xlink:href="#DejaVuSans-65"/>
       <use x="453.076172" xlink:href="#DejaVuSans-61"/>
       <use x="514.355469" xlink:href="#DejaVuSans-6d"/>
       <use x="611.767578" xlink:href="#DejaVuSans-73"/>
      </g>
     </g>
    </g>
    <g id="xtick_12">
     <g id="line2d_12">
      <g>
       <use style="stroke:#000000;stroke-width:0.8;" x="433.427771" xlink:href="#m4fd388d1c2" y="234.903617"/>
      </g>
     </g>
     <g id="text_12">
      <!-- Films and TV series -->
      <defs>
       <path d="M 9.8125 72.90625 
L 51.703125 72.90625 
L 51.703125 64.59375 
L 19.671875 64.59375 
L 19.671875 43.109375 
L 48.578125 43.109375 
L 48.578125 34.8125 
L 19.671875 34.8125 
L 19.671875 0 
L 9.8125 0 
z
" id="DejaVuSans-46"/>
       <path d="M -0.296875 72.90625 
L 61.375 72.90625 
L 61.375 64.59375 
L 35.5 64.59375 
L 35.5 0 
L 25.59375 0 
L 25.59375 64.59375 
L -0.296875 64.59375 
z
" id="DejaVuSans-54"/>
       <path d="M 28.609375 0 
L 0.78125 72.90625 
L 11.078125 72.90625 
L 34.1875 11.53125 
L 57.328125 72.90625 
L 67.578125 72.90625 
L 39.796875 0 
z
" id="DejaVuSans-56"/>
      </defs>
      <g transform="translate(363.256261 315.977472)rotate(-45)scale(0.1 -0.1)">
       <use xlink:href="#DejaVuSans-46"/>
       <use x="57.410156" xlink:href="#DejaVuSans-69"/>
       <use x="85.193359" xlink:href="#DejaVuSans-6c"/>
       <use x="112.976562" xlink:href="#DejaVuSans-6d"/>
       <use x="210.388672" xlink:href="#DejaVuSans-73"/>
       <use x="262.488281" xlink:href="#DejaVuSans-20"/>
       <use x="294.275391" xlink:href="#DejaVuSans-61"/>
       <use x="355.554688" xlink:href="#DejaVuSans-6e"/>
       <use x="418.933594" xlink:href="#DejaVuSans-64"/>
       <use x="482.410156" xlink:href="#DejaVuSans-20"/>
       <use x="514.197266" xlink:href="#DejaVuSans-54"/>
       <use x="575.28125" xlink:href="#DejaVuSans-56"/>
       <use x="643.689453" xlink:href="#DejaVuSans-20"/>
       <use x="675.476562" xlink:href="#DejaVuSans-73"/>
       <use x="727.576172" xlink:href="#DejaVuSans-65"/>
       <use x="789.099609" xlink:href="#DejaVuSans-72"/>
       <use x="830.212891" xlink:href="#DejaVuSans-69"/>
       <use x="857.996094" xlink:href="#DejaVuSans-65"/>
       <use x="919.519531" xlink:href="#DejaVuSans-73"/>
      </g>
     </g>
    </g>
    <g id="xtick_13">
     <g id="line2d_13">
      <g>
       <use style="stroke:#000000;stroke-width:0.8;" x="465.068463" xlink:href="#m4fd388d1c2" y="234.903617"/>
      </g>
     </g>
     <g id="text_13">
      <!-- Albums -->
      <g transform="translate(437.25486 273.619566)rotate(-45)scale(0.1 -0.1)">
       <use xlink:href="#DejaVuSans-41"/>
       <use x="68.408203" xlink:href="#DejaVuSans-6c"/>
       <use x="96.191406" xlink:href="#DejaVuSans-62"/>
       <use x="159.667969" xlink:href="#DejaVuSans-75"/>
       <use x="223.046875" xlink:href="#DejaVuSans-6d"/>
       <use x="320.458984" xlink:href="#DejaVuSans-73"/>
      </g>
     </g>
    </g>
    <g id="xtick_14">
     <g id="line2d_14">
      <g>
       <use style="stroke:#000000;stroke-width:0.8;" x="496.709156" xlink:href="#m4fd388d1c2" y="234.903617"/>
      </g>
     </g>
     <g id="text_14">
      <!-- Books and book series -->
      <defs>
       <path d="M 19.671875 34.8125 
L 19.671875 8.109375 
L 35.5 8.109375 
Q 43.453125 8.109375 47.28125 11.40625 
Q 51.125 14.703125 51.125 21.484375 
Q 51.125 28.328125 47.28125 31.5625 
Q 43.453125 34.8125 35.5 34.8125 
z
M 19.671875 64.796875 
L 19.671875 42.828125 
L 34.28125 42.828125 
Q 41.5 42.828125 45.03125 45.53125 
Q 48.578125 48.25 48.578125 53.8125 
Q 48.578125 59.328125 45.03125 62.0625 
Q 41.5 64.796875 34.28125 64.796875 
z
M 9.8125 72.90625 
L 35.015625 72.90625 
Q 46.296875 72.90625 52.390625 68.21875 
Q 58.5 63.53125 58.5 54.890625 
Q 58.5 48.1875 55.375 44.234375 
Q 52.25 40.28125 46.1875 39.3125 
Q 53.46875 37.75 57.5 32.78125 
Q 61.53125 27.828125 61.53125 20.40625 
Q 61.53125 10.640625 54.890625 5.3125 
Q 48.25 0 35.984375 0 
L 9.8125 0 
z
" id="DejaVuSans-42"/>
       <path d="M 9.078125 75.984375 
L 18.109375 75.984375 
L 18.109375 31.109375 
L 44.921875 54.6875 
L 56.390625 54.6875 
L 27.390625 29.109375 
L 57.625 0 
L 45.90625 0 
L 18.109375 26.703125 
L 18.109375 0 
L 9.078125 0 
z
" id="DejaVuSans-6b"/>
      </defs>
      <g transform="translate(415.733276 326.781842)rotate(-45)scale(0.1 -0.1)">
       <use xlink:href="#DejaVuSans-42"/>
       <use x="68.603516" xlink:href="#DejaVuSans-6f"/>
       <use x="129.785156" xlink:href="#DejaVuSans-6f"/>
       <use x="190.966797" xlink:href="#DejaVuSans-6b"/>
       <use x="248.876953" xlink:href="#DejaVuSans-73"/>
       <use x="300.976562" xlink:href="#DejaVuSans-20"/>
       <use x="332.763672" xlink:href="#DejaVuSans-61"/>
       <use x="394.042969" xlink:href="#DejaVuSans-6e"/>
       <use x="457.421875" xlink:href="#DejaVuSans-64"/>
       <use x="520.898438" xlink:href="#DejaVuSans-20"/>
       <use x="552.685547" xlink:href="#DejaVuSans-62"/>
       <use x="616.162109" xlink:href="#DejaVuSans-6f"/>
       <use x="677.34375" xlink:href="#DejaVuSans-6f"/>
       <use x="738.525391" xlink:href="#DejaVuSans-6b"/>
       <use x="796.435547" xlink:href="#DejaVuSans-20"/>
       <use x="828.222656" xlink:href="#DejaVuSans-73"/>
       <use x="880.322266" xlink:href="#DejaVuSans-65"/>
       <use x="941.845703" xlink:href="#DejaVuSans-72"/>
       <use x="982.958984" xlink:href="#DejaVuSans-69"/>
       <use x="1010.742188" xlink:href="#DejaVuSans-65"/>
       <use x="1072.265625" xlink:href="#DejaVuSans-73"/>
      </g>
     </g>
    </g>
    <g id="xtick_15">
     <g id="line2d_15">
      <g>
       <use style="stroke:#000000;stroke-width:0.8;" x="528.349848" xlink:href="#m4fd388d1c2" y="234.903617"/>
      </g>
     </g>
     <g id="text_15">
      <!-- Pre-modern books and texts -->
      <defs>
       <path d="M 54.890625 54.6875 
L 35.109375 28.078125 
L 55.90625 0 
L 45.3125 0 
L 29.390625 21.484375 
L 13.484375 0 
L 2.875 0 
L 24.125 28.609375 
L 4.6875 54.6875 
L 15.28125 54.6875 
L 29.78125 35.203125 
L 44.28125 54.6875 
z
" id="DejaVuSans-78"/>
      </defs>
      <g transform="translate(426.640272 347.515539)rotate(-45)scale(0.1 -0.1)">
       <use xlink:href="#DejaVuSans-50"/>
       <use x="60.287109" xlink:href="#DejaVuSans-72"/>
       <use x="101.369141" xlink:href="#DejaVuSans-65"/>
       <use x="162.892578" xlink:href="#DejaVuSans-2d"/>
       <use x="198.976562" xlink:href="#DejaVuSans-6d"/>
       <use x="296.388672" xlink:href="#DejaVuSans-6f"/>
       <use x="357.570312" xlink:href="#DejaVuSans-64"/>
       <use x="421.046875" xlink:href="#DejaVuSans-65"/>
       <use x="482.570312" xlink:href="#DejaVuSans-72"/>
       <use x="523.667969" xlink:href="#DejaVuSans-6e"/>
       <use x="587.046875" xlink:href="#DejaVuSans-20"/>
       <use x="618.833984" xlink:href="#DejaVuSans-62"/>
       <use x="682.310547" xlink:href="#DejaVuSans-6f"/>
       <use x="743.492188" xlink:href="#DejaVuSans-6f"/>
       <use x="804.673828" xlink:href="#DejaVuSans-6b"/>
       <use x="862.583984" xlink:href="#DejaVuSans-73"/>
       <use x="914.683594" xlink:href="#DejaVuSans-20"/>
       <use x="946.470703" xlink:href="#DejaVuSans-61"/>
       <use x="1007.75" xlink:href="#DejaVuSans-6e"/>
       <use x="1071.128906" xlink:href="#DejaVuSans-64"/>
       <use x="1134.605469" xlink:href="#DejaVuSans-20"/>
       <use x="1166.392578" xlink:href="#DejaVuSans-74"/>
       <use x="1205.601562" xlink:href="#DejaVuSans-65"/>
       <use x="1267.109375" xlink:href="#DejaVuSans-78"/>
       <use x="1326.289062" xlink:href="#DejaVuSans-74"/>
       <use x="1365.498047" xlink:href="#DejaVuSans-73"/>
      </g>
     </g>
    </g>
   </g>
   <g id="matplotlib.axis_2">
    <g id="ytick_1">
     <g id="line2d_16">
      <defs>
       <path d="M 0 0 
L -3.5 0 
" id="m811582b825" style="stroke:#000000;stroke-width:0.8;"/>
      </defs>
      <g>
       <use style="stroke:#000000;stroke-width:0.8;" x="51.05" xlink:href="#m811582b825" y="234.903617"/>
      </g>
     </g>
     <g id="text_16">
      <!-- 0 -->
      <defs>
       <path d="M 31.78125 66.40625 
Q 24.171875 66.40625 20.328125 58.90625 
Q 16.5 51.421875 16.5 36.375 
Q 16.5 21.390625 20.328125 13.890625 
Q 24.171875 6.390625 31.78125 6.390625 
Q 39.453125 6.390625 43.28125 13.890625 
Q 47.125 21.390625 47.125 36.375 
Q 47.125 51.421875 43.28125 58.90625 
Q 39.453125 66.40625 31.78125 66.40625 
z
M 31.78125 74.21875 
Q 44.046875 74.21875 50.515625 64.515625 
Q 56.984375 54.828125 56.984375 36.375 
Q 56.984375 17.96875 50.515625 8.265625 
Q 44.046875 -1.421875 31.78125 -1.421875 
Q 19.53125 -1.421875 13.0625 8.265625 
Q 6.59375 17.96875 6.59375 36.375 
Q 6.59375 54.828125 13.0625 64.515625 
Q 19.53125 74.21875 31.78125 74.21875 
z
" id="DejaVuSans-30"/>
      </defs>
      <g transform="translate(37.6875 238.702836)scale(0.1 -0.1)">
       <use xlink:href="#DejaVuSans-30"/>
      </g>
     </g>
    </g>
    <g id="ytick_2">
     <g id="line2d_17">
      <g>
       <use style="stroke:#000000;stroke-width:0.8;" x="51.05" xlink:href="#m811582b825" y="211.176943"/>
      </g>
     </g>
     <g id="text_17">
      <!-- 20 -->
      <defs>
       <path d="M 19.1875 8.296875 
L 53.609375 8.296875 
L 53.609375 0 
L 7.328125 0 
L 7.328125 8.296875 
Q 12.9375 14.109375 22.625 23.890625 
Q 32.328125 33.6875 34.8125 36.53125 
Q 39.546875 41.84375 41.421875 45.53125 
Q 43.3125 49.21875 43.3125 52.78125 
Q 43.3125 58.59375 39.234375 62.25 
Q 35.15625 65.921875 28.609375 65.921875 
Q 23.96875 65.921875 18.8125 64.3125 
Q 13.671875 62.703125 7.8125 59.421875 
L 7.8125 69.390625 
Q 13.765625 71.78125 18.9375 73 
Q 24.125 74.21875 28.421875 74.21875 
Q 39.75 74.21875 46.484375 68.546875 
Q 53.21875 62.890625 53.21875 53.421875 
Q 53.21875 48.921875 51.53125 44.890625 
Q 49.859375 40.875 45.40625 35.40625 
Q 44.1875 33.984375 37.640625 27.21875 
Q 31.109375 20.453125 19.1875 8.296875 
z
" id="DejaVuSans-32"/>
      </defs>
      <g transform="translate(31.325 214.976161)scale(0.1 -0.1)">
       <use xlink:href="#DejaVuSans-32"/>
       <use x="63.623047" xlink:href="#DejaVuSans-30"/>
      </g>
     </g>
    </g>
    <g id="ytick_3">
     <g id="line2d_18">
      <g>
       <use style="stroke:#000000;stroke-width:0.8;" x="51.05" xlink:href="#m811582b825" y="187.450268"/>
      </g>
     </g>
     <g id="text_18">
      <!-- 40 -->
      <defs>
       <path d="M 37.796875 64.3125 
L 12.890625 25.390625 
L 37.796875 25.390625 
z
M 35.203125 72.90625 
L 47.609375 72.90625 
L 47.609375 25.390625 
L 58.015625 25.390625 
L 58.015625 17.1875 
L 47.609375 17.1875 
L 47.609375 0 
L 37.796875 0 
L 37.796875 17.1875 
L 4.890625 17.1875 
L 4.890625 26.703125 
z
" id="DejaVuSans-34"/>
      </defs>
      <g transform="translate(31.325 191.249487)scale(0.1 -0.1)">
       <use xlink:href="#DejaVuSans-34"/>
       <use x="63.623047" xlink:href="#DejaVuSans-30"/>
      </g>
     </g>
    </g>
    <g id="ytick_4">
     <g id="line2d_19">
      <g>
       <use style="stroke:#000000;stroke-width:0.8;" x="51.05" xlink:href="#m811582b825" y="163.723594"/>
      </g>
     </g>
     <g id="text_19">
      <!-- 60 -->
      <defs>
       <path d="M 33.015625 40.375 
Q 26.375 40.375 22.484375 35.828125 
Q 18.609375 31.296875 18.609375 23.390625 
Q 18.609375 15.53125 22.484375 10.953125 
Q 26.375 6.390625 33.015625 6.390625 
Q 39.65625 6.390625 43.53125 10.953125 
Q 47.40625 15.53125 47.40625 23.390625 
Q 47.40625 31.296875 43.53125 35.828125 
Q 39.65625 40.375 33.015625 40.375 
z
M 52.59375 71.296875 
L 52.59375 62.3125 
Q 48.875 64.0625 45.09375 64.984375 
Q 41.3125 65.921875 37.59375 65.921875 
Q 27.828125 65.921875 22.671875 59.328125 
Q 17.53125 52.734375 16.796875 39.40625 
Q 19.671875 43.65625 24.015625 45.921875 
Q 28.375 48.1875 33.59375 48.1875 
Q 44.578125 48.1875 50.953125 41.515625 
Q 57.328125 34.859375 57.328125 23.390625 
Q 57.328125 12.15625 50.6875 5.359375 
Q 44.046875 -1.421875 33.015625 -1.421875 
Q 20.359375 -1.421875 13.671875 8.265625 
Q 6.984375 17.96875 6.984375 36.375 
Q 6.984375 53.65625 15.1875 63.9375 
Q 23.390625 74.21875 37.203125 74.21875 
Q 40.921875 74.21875 44.703125 73.484375 
Q 48.484375 72.75 52.59375 71.296875 
z
" id="DejaVuSans-36"/>
      </defs>
      <g transform="translate(31.325 167.522813)scale(0.1 -0.1)">
       <use xlink:href="#DejaVuSans-36"/>
       <use x="63.623047" xlink:href="#DejaVuSans-30"/>
      </g>
     </g>
    </g>
    <g id="ytick_5">
     <g id="line2d_20">
      <g>
       <use style="stroke:#000000;stroke-width:0.8;" x="51.05" xlink:href="#m811582b825" y="139.99692"/>
      </g>
     </g>
     <g id="text_20">
      <!-- 80 -->
      <defs>
       <path d="M 31.78125 34.625 
Q 24.75 34.625 20.71875 30.859375 
Q 16.703125 27.09375 16.703125 20.515625 
Q 16.703125 13.921875 20.71875 10.15625 
Q 24.75 6.390625 31.78125 6.390625 
Q 38.8125 6.390625 42.859375 10.171875 
Q 46.921875 13.96875 46.921875 20.515625 
Q 46.921875 27.09375 42.890625 30.859375 
Q 38.875 34.625 31.78125 34.625 
z
M 21.921875 38.8125 
Q 15.578125 40.375 12.03125 44.71875 
Q 8.5 49.078125 8.5 55.328125 
Q 8.5 64.0625 14.71875 69.140625 
Q 20.953125 74.21875 31.78125 74.21875 
Q 42.671875 74.21875 48.875 69.140625 
Q 55.078125 64.0625 55.078125 55.328125 
Q 55.078125 49.078125 51.53125 44.71875 
Q 48 40.375 41.703125 38.8125 
Q 48.828125 37.15625 52.796875 32.3125 
Q 56.78125 27.484375 56.78125 20.515625 
Q 56.78125 9.90625 50.3125 4.234375 
Q 43.84375 -1.421875 31.78125 -1.421875 
Q 19.734375 -1.421875 13.25 4.234375 
Q 6.78125 9.90625 6.78125 20.515625 
Q 6.78125 27.484375 10.78125 32.3125 
Q 14.796875 37.15625 21.921875 38.8125 
z
M 18.3125 54.390625 
Q 18.3125 48.734375 21.84375 45.5625 
Q 25.390625 42.390625 31.78125 42.390625 
Q 38.140625 42.390625 41.71875 45.5625 
Q 45.3125 48.734375 45.3125 54.390625 
Q 45.3125 60.0625 41.71875 63.234375 
Q 38.140625 66.40625 31.78125 66.40625 
Q 25.390625 66.40625 21.84375 63.234375 
Q 18.3125 60.0625 18.3125 54.390625 
z
" id="DejaVuSans-38"/>
      </defs>
      <g transform="translate(31.325 143.796139)scale(0.1 -0.1)">
       <use xlink:href="#DejaVuSans-38"/>
       <use x="63.623047" xlink:href="#DejaVuSans-30"/>
      </g>
     </g>
    </g>
    <g id="ytick_6">
     <g id="line2d_21">
      <g>
       <use style="stroke:#000000;stroke-width:0.8;" x="51.05" xlink:href="#m811582b825" y="116.270245"/>
      </g>
     </g>
     <g id="text_21">
      <!-- 100 -->
      <defs>
       <path d="M 12.40625 8.296875 
L 28.515625 8.296875 
L 28.515625 63.921875 
L 10.984375 60.40625 
L 10.984375 69.390625 
L 28.421875 72.90625 
L 38.28125 72.90625 
L 38.28125 8.296875 
L 54.390625 8.296875 
L 54.390625 0 
L 12.40625 0 
z
" id="DejaVuSans-31"/>
      </defs>
      <g transform="translate(24.9625 120.069464)scale(0.1 -0.1)">
       <use xlink:href="#DejaVuSans-31"/>
       <use x="63.623047" xlink:href="#DejaVuSans-30"/>
       <use x="127.246094" xlink:href="#DejaVuSans-30"/>
      </g>
     </g>
    </g>
    <g id="ytick_7">
     <g id="line2d_22">
      <g>
       <use style="stroke:#000000;stroke-width:0.8;" x="51.05" xlink:href="#m811582b825" y="92.543571"/>
      </g>
     </g>
     <g id="text_22">
      <!-- 120 -->
      <g transform="translate(24.9625 96.34279)scale(0.1 -0.1)">
       <use xlink:href="#DejaVuSans-31"/>
       <use x="63.623047" xlink:href="#DejaVuSans-32"/>
       <use x="127.246094" xlink:href="#DejaVuSans-30"/>
      </g>
     </g>
    </g>
    <g id="ytick_8">
     <g id="line2d_23">
      <g>
       <use style="stroke:#000000;stroke-width:0.8;" x="51.05" xlink:href="#m811582b825" y="68.816897"/>
      </g>
     </g>
     <g id="text_23">
      <!-- 140 -->
      <g transform="translate(24.9625 72.616116)scale(0.1 -0.1)">
       <use xlink:href="#DejaVuSans-31"/>
       <use x="63.623047" xlink:href="#DejaVuSans-34"/>
       <use x="127.246094" xlink:href="#DejaVuSans-30"/>
      </g>
     </g>
    </g>
    <g id="ytick_9">
     <g id="line2d_24">
      <g>
       <use style="stroke:#000000;stroke-width:0.8;" x="51.05" xlink:href="#m811582b825" y="45.090223"/>
      </g>
     </g>
     <g id="text_24">
      <!-- 160 -->
      <g transform="translate(24.9625 48.889441)scale(0.1 -0.1)">
       <use xlink:href="#DejaVuSans-31"/>
       <use x="63.623047" xlink:href="#DejaVuSans-36"/>
       <use x="127.246094" xlink:href="#DejaVuSans-30"/>
      </g>
     </g>
    </g>
    <g id="text_25">
     <!-- Page popularity (millions of pageviews) -->
     <defs>
      <path d="M 32.171875 -5.078125 
Q 28.375 -14.84375 24.75 -17.8125 
Q 21.140625 -20.796875 15.09375 -20.796875 
L 7.90625 -20.796875 
L 7.90625 -13.28125 
L 13.1875 -13.28125 
Q 16.890625 -13.28125 18.9375 -11.515625 
Q 21 -9.765625 23.484375 -3.21875 
L 25.09375 0.875 
L 2.984375 54.6875 
L 12.5 54.6875 
L 29.59375 11.921875 
L 46.6875 54.6875 
L 56.203125 54.6875 
z
" id="DejaVuSans-79"/>
      <path d="M 31 75.875 
Q 24.46875 64.65625 21.28125 53.65625 
Q 18.109375 42.671875 18.109375 31.390625 
Q 18.109375 20.125 21.3125 9.0625 
Q 24.515625 -2 31 -13.1875 
L 23.1875 -13.1875 
Q 15.875 -1.703125 12.234375 9.375 
Q 8.59375 20.453125 8.59375 31.390625 
Q 8.59375 42.28125 12.203125 53.3125 
Q 15.828125 64.359375 23.1875 75.875 
z
" id="DejaVuSans-28"/>
      <path d="M 37.109375 75.984375 
L 37.109375 68.5 
L 28.515625 68.5 
Q 23.6875 68.5 21.796875 66.546875 
Q 19.921875 64.59375 19.921875 59.515625 
L 19.921875 54.6875 
L 34.71875 54.6875 
L 34.71875 47.703125 
L 19.921875 47.703125 
L 19.921875 0 
L 10.890625 0 
L 10.890625 47.703125 
L 2.296875 47.703125 
L 2.296875 54.6875 
L 10.890625 54.6875 
L 10.890625 58.5 
Q 10.890625 67.625 15.140625 71.796875 
Q 19.390625 75.984375 28.609375 75.984375 
z
" id="DejaVuSans-66"/>
      <path d="M 2.984375 54.6875 
L 12.5 54.6875 
L 29.59375 8.796875 
L 46.6875 54.6875 
L 56.203125 54.6875 
L 35.6875 0 
L 23.484375 0 
z
" id="DejaVuSans-76"/>
      <path d="M 4.203125 54.6875 
L 13.1875 54.6875 
L 24.421875 12.015625 
L 35.59375 54.6875 
L 46.1875 54.6875 
L 57.421875 12.015625 
L 68.609375 54.6875 
L 77.59375 54.6875 
L 63.28125 0 
L 52.6875 0 
L 40.921875 44.828125 
L 29.109375 0 
L 18.5 0 
z
" id="DejaVuSans-77"/>
      <path d="M 8.015625 75.875 
L 15.828125 75.875 
Q 23.140625 64.359375 26.78125 53.3125 
Q 30.421875 42.28125 30.421875 31.390625 
Q 30.421875 20.453125 26.78125 9.375 
Q 23.140625 -1.703125 15.828125 -13.1875 
L 8.015625 -13.1875 
Q 14.5 -2 17.703125 9.0625 
Q 20.90625 20.125 20.90625 31.390625 
Q 20.90625 42.671875 17.703125 53.65625 
Q 14.5 64.65625 8.015625 75.875 
z
" id="DejaVuSans-29"/>
     </defs>
     <g transform="translate(18.882813 229.556652)rotate(-90)scale(0.1 -0.1)">
      <use xlink:href="#DejaVuSans-50"/>
      <use x="60.240234" xlink:href="#DejaVuSans-61"/>
      <use x="121.519531" xlink:href="#DejaVuSans-67"/>
      <use x="184.996094" xlink:href="#DejaVuSans-65"/>
      <use x="246.519531" xlink:href="#DejaVuSans-20"/>
      <use x="278.306641" xlink:href="#DejaVuSans-70"/>
      <use x="341.783203" xlink:href="#DejaVuSans-6f"/>
      <use x="402.964844" xlink:href="#DejaVuSans-70"/>
      <use x="466.441406" xlink:href="#DejaVuSans-75"/>
      <use x="529.820312" xlink:href="#DejaVuSans-6c"/>
      <use x="557.603516" xlink:href="#DejaVuSans-61"/>
      <use x="618.882812" xlink:href="#DejaVuSans-72"/>
      <use x="659.996094" xlink:href="#DejaVuSans-69"/>
      <use x="687.779297" xlink:href="#DejaVuSans-74"/>
      <use x="726.988281" xlink:href="#DejaVuSans-79"/>
      <use x="786.167969" xlink:href="#DejaVuSans-20"/>
      <use x="817.955078" xlink:href="#DejaVuSans-28"/>
      <use x="856.96875" xlink:href="#DejaVuSans-6d"/>
      <use x="954.380859" xlink:href="#DejaVuSans-69"/>
      <use x="982.164062" xlink:href="#DejaVuSans-6c"/>
      <use x="1009.947266" xlink:href="#DejaVuSans-6c"/>
      <use x="1037.730469" xlink:href="#DejaVuSans-69"/>
      <use x="1065.513672" xlink:href="#DejaVuSans-6f"/>
      <use x="1126.695312" xlink:href="#DejaVuSans-6e"/>
      <use x="1190.074219" xlink:href="#DejaVuSans-73"/>
      <use x="1242.173828" xlink:href="#DejaVuSans-20"/>
      <use x="1273.960938" xlink:href="#DejaVuSans-6f"/>
      <use x="1335.142578" xlink:href="#DejaVuSans-66"/>
      <use x="1370.347656" xlink:href="#DejaVuSans-20"/>
      <use x="1402.134766" xlink:href="#DejaVuSans-70"/>
      <use x="1465.611328" xlink:href="#DejaVuSans-61"/>
      <use x="1526.890625" xlink:href="#DejaVuSans-67"/>
      <use x="1590.367188" xlink:href="#DejaVuSans-65"/>
      <use x="1651.890625" xlink:href="#DejaVuSans-76"/>
      <use x="1711.070312" xlink:href="#DejaVuSans-69"/>
      <use x="1738.853516" xlink:href="#DejaVuSans-65"/>
      <use x="1800.376953" xlink:href="#DejaVuSans-77"/>
      <use x="1882.164062" xlink:href="#DejaVuSans-73"/>
      <use x="1934.263672" xlink:href="#DejaVuSans-29"/>
     </g>
    </g>
   </g>
   <g id="patch_48">
    <path d="M 51.05 234.903617 
L 51.05 26.88 
" style="fill:none;stroke:#000000;stroke-linecap:square;stroke-linejoin:miter;stroke-width:0.8;"/>
   </g>
   <g id="patch_49">
    <path d="M 562.68 234.903617 
L 562.68 26.88 
" style="fill:none;stroke:#000000;stroke-linecap:square;stroke-linejoin:miter;stroke-width:0.8;"/>
   </g>
   <g id="patch_50">
    <path d="M 51.05 234.903617 
L 562.68 234.903617 
" style="fill:none;stroke:#000000;stroke-linecap:square;stroke-linejoin:miter;stroke-width:0.8;"/>
   </g>
   <g id="patch_51">
    <path d="M 51.05 26.88 
L 562.68 26.88 
" style="fill:none;stroke:#000000;stroke-linecap:square;stroke-linejoin:miter;stroke-width:0.8;"/>
   </g>
   <g id="text_26">
    <g id="patch_52">
     <path d="M 47.52312 40.492907 
L 123.237183 40.492907 
L 123.237183 22.814782 
L 47.52312 22.814782 
z
" style="fill:#ffffff;opacity:0.5;stroke:#000000;stroke-linejoin:miter;"/>
    </g>
    <!-- United States -->
    <defs>
     <path d="M 8.6875 72.90625 
L 18.609375 72.90625 
L 18.609375 28.609375 
Q 18.609375 16.890625 22.84375 11.734375 
Q 27.09375 6.59375 36.625 6.59375 
Q 46.09375 6.59375 50.34375 11.734375 
Q 54.59375 16.890625 54.59375 28.609375 
L 54.59375 72.90625 
L 64.5 72.90625 
L 64.5 27.390625 
Q 64.5 13.140625 57.4375 5.859375 
Q 50.390625 -1.421875 36.625 -1.421875 
Q 22.796875 -1.421875 15.734375 5.859375 
Q 8.6875 13.140625 8.6875 27.390625 
z
" id="DejaVuSans-55"/>
    </defs>
    <g transform="translate(51.52312 34.413219)scale(0.1 -0.1)">
     <use xlink:href="#DejaVuSans-55"/>
     <use x="73.193359" xlink:href="#DejaVuSans-6e"/>
     <use x="136.572266" xlink:href="#DejaVuSans-69"/>
     <use x="164.355469" xlink:href="#DejaVuSans-74"/>
     <use x="203.564453" xlink:href="#DejaVuSans-65"/>
     <use x="265.087891" xlink:href="#DejaVuSans-64"/>
     <use x="328.564453" xlink:href="#DejaVuSans-20"/>
     <use x="360.351562" xlink:href="#DejaVuSans-53"/>
     <use x="423.828125" xlink:href="#DejaVuSans-74"/>
     <use x="463.037109" xlink:href="#DejaVuSans-61"/>
     <use x="524.316406" xlink:href="#DejaVuSans-74"/>
     <use x="563.525391" xlink:href="#DejaVuSans-65"/>
     <use x="625.048828" xlink:href="#DejaVuSans-73"/>
    </g>
   </g>
   <g id="text_27">
    <g id="patch_53">
     <path d="M 78.082563 167.786514 
L 155.959125 167.786514 
L 155.959125 150.108389 
L 78.082563 150.108389 
z
" style="fill:#ffffff;opacity:0.5;stroke:#000000;stroke-linejoin:miter;"/>
    </g>
    <!-- New York City -->
    <defs>
     <path d="M 9.8125 72.90625 
L 23.09375 72.90625 
L 55.421875 11.921875 
L 55.421875 72.90625 
L 64.984375 72.90625 
L 64.984375 0 
L 51.703125 0 
L 19.390625 60.984375 
L 19.390625 0 
L 9.8125 0 
z
" id="DejaVuSans-4e"/>
     <path d="M -0.203125 72.90625 
L 10.40625 72.90625 
L 30.609375 42.921875 
L 50.6875 72.90625 
L 61.28125 72.90625 
L 35.5 34.71875 
L 35.5 0 
L 25.59375 0 
L 25.59375 34.71875 
z
" id="DejaVuSans-59"/>
    </defs>
    <g transform="translate(82.082563 161.706827)scale(0.1 -0.1)">
     <use xlink:href="#DejaVuSans-4e"/>
     <use x="74.804688" xlink:href="#DejaVuSans-65"/>
     <use x="136.328125" xlink:href="#DejaVuSans-77"/>
     <use x="218.115234" xlink:href="#DejaVuSans-20"/>
     <use x="249.902344" xlink:href="#DejaVuSans-59"/>
     <use x="310.783203" xlink:href="#DejaVuSans-6f"/>
     <use x="371.964844" xlink:href="#DejaVuSans-72"/>
     <use x="413.078125" xlink:href="#DejaVuSans-6b"/>
     <use x="470.988281" xlink:href="#DejaVuSans-20"/>
     <use x="502.775391" xlink:href="#DejaVuSans-43"/>
     <use x="572.599609" xlink:href="#DejaVuSans-69"/>
     <use x="600.382812" xlink:href="#DejaVuSans-74"/>
     <use x="639.591797" xlink:href="#DejaVuSans-79"/>
    </g>
   </g>
   <g id="text_28">
    <g id="patch_54">
     <path d="M 109.055287 91.505256 
L 188.267787 91.505256 
L 188.267787 73.827131 
L 109.055287 73.827131 
z
" style="fill:#ffffff;opacity:0.5;stroke:#000000;stroke-linejoin:miter;"/>
    </g>
    <!-- Donald Trump -->
    <defs>
     <path d="M 19.671875 64.796875 
L 19.671875 8.109375 
L 31.59375 8.109375 
Q 46.6875 8.109375 53.6875 14.9375 
Q 60.6875 21.78125 60.6875 36.53125 
Q 60.6875 51.171875 53.6875 57.984375 
Q 46.6875 64.796875 31.59375 64.796875 
z
M 9.8125 72.90625 
L 30.078125 72.90625 
Q 51.265625 72.90625 61.171875 64.09375 
Q 71.09375 55.28125 71.09375 36.53125 
Q 71.09375 17.671875 61.125 8.828125 
Q 51.171875 0 30.078125 0 
L 9.8125 0 
z
" id="DejaVuSans-44"/>
    </defs>
    <g transform="translate(113.055287 85.425569)scale(0.1 -0.1)">
     <use xlink:href="#DejaVuSans-44"/>
     <use x="77.001953" xlink:href="#DejaVuSans-6f"/>
     <use x="138.183594" xlink:href="#DejaVuSans-6e"/>
     <use x="201.5625" xlink:href="#DejaVuSans-61"/>
     <use x="262.841797" xlink:href="#DejaVuSans-6c"/>
     <use x="290.625" xlink:href="#DejaVuSans-64"/>
     <use x="354.101562" xlink:href="#DejaVuSans-20"/>
     <use x="385.888672" xlink:href="#DejaVuSans-54"/>
     <use x="446.753906" xlink:href="#DejaVuSans-72"/>
     <use x="487.867188" xlink:href="#DejaVuSans-75"/>
     <use x="551.246094" xlink:href="#DejaVuSans-6d"/>
     <use x="648.658203" xlink:href="#DejaVuSans-70"/>
    </g>
   </g>
   <g id="text_29">
    <g id="patch_55">
     <path d="M 136.545979 125.078501 
L 224.058479 125.078501 
L 224.058479 107.400376 
L 136.545979 107.400376 
z
" style="fill:#ffffff;opacity:0.5;stroke:#000000;stroke-linejoin:miter;"/>
    </g>
    <!-- Michael Jackson -->
    <defs>
     <path d="M 54.890625 33.015625 
L 54.890625 0 
L 45.90625 0 
L 45.90625 32.71875 
Q 45.90625 40.484375 42.875 44.328125 
Q 39.84375 48.1875 33.796875 48.1875 
Q 26.515625 48.1875 22.3125 43.546875 
Q 18.109375 38.921875 18.109375 30.90625 
L 18.109375 0 
L 9.078125 0 
L 9.078125 75.984375 
L 18.109375 75.984375 
L 18.109375 46.1875 
Q 21.34375 51.125 25.703125 53.5625 
Q 30.078125 56 35.796875 56 
Q 45.21875 56 50.046875 50.171875 
Q 54.890625 44.34375 54.890625 33.015625 
z
" id="DejaVuSans-68"/>
     <path d="M 9.8125 72.90625 
L 19.671875 72.90625 
L 19.671875 5.078125 
Q 19.671875 -8.109375 14.671875 -14.0625 
Q 9.671875 -20.015625 -1.421875 -20.015625 
L -5.171875 -20.015625 
L -5.171875 -11.71875 
L -2.09375 -11.71875 
Q 4.4375 -11.71875 7.125 -8.046875 
Q 9.8125 -4.390625 9.8125 5.078125 
z
" id="DejaVuSans-4a"/>
    </defs>
    <g transform="translate(140.545979 118.998813)scale(0.1 -0.1)">
     <use xlink:href="#DejaVuSans-4d"/>
     <use x="86.279297" xlink:href="#DejaVuSans-69"/>
     <use x="114.0625" xlink:href="#DejaVuSans-63"/>
     <use x="169.042969" xlink:href="#DejaVuSans-68"/>
     <use x="232.421875" xlink:href="#DejaVuSans-61"/>
     <use x="293.701172" xlink:href="#DejaVuSans-65"/>
     <use x="355.224609" xlink:href="#DejaVuSans-6c"/>
     <use x="383.007812" xlink:href="#DejaVuSans-20"/>
     <use x="414.794922" xlink:href="#DejaVuSans-4a"/>
     <use x="444.287109" xlink:href="#DejaVuSans-61"/>
     <use x="505.566406" xlink:href="#DejaVuSans-63"/>
     <use x="560.546875" xlink:href="#DejaVuSans-6b"/>
     <use x="618.457031" xlink:href="#DejaVuSans-73"/>
     <use x="670.556641" xlink:href="#DejaVuSans-6f"/>
     <use x="731.738281" xlink:href="#DejaVuSans-6e"/>
    </g>
   </g>
   <g id="text_30">
    <g id="patch_56">
     <path d="M 168.78511 152.008276 
L 255.100735 152.008276 
L 255.100735 134.330151 
L 168.78511 134.330151 
z
" style="fill:#ffffff;opacity:0.5;stroke:#000000;stroke-linejoin:miter;"/>
    </g>
    <!-- Kim Kardashian -->
    <defs>
     <path d="M 9.8125 72.90625 
L 19.671875 72.90625 
L 19.671875 42.09375 
L 52.390625 72.90625 
L 65.09375 72.90625 
L 28.90625 38.921875 
L 67.671875 0 
L 54.6875 0 
L 19.671875 35.109375 
L 19.671875 0 
L 9.8125 0 
z
" id="DejaVuSans-4b"/>
    </defs>
    <g transform="translate(172.78511 145.928588)scale(0.1 -0.1)">
     <use xlink:href="#DejaVuSans-4b"/>
     <use x="65.576172" xlink:href="#DejaVuSans-69"/>
     <use x="93.359375" xlink:href="#DejaVuSans-6d"/>
     <use x="190.771484" xlink:href="#DejaVuSans-20"/>
     <use x="222.558594" xlink:href="#DejaVuSans-4b"/>
     <use x="288.119141" xlink:href="#DejaVuSans-61"/>
     <use x="349.398438" xlink:href="#DejaVuSans-72"/>
     <use x="390.496094" xlink:href="#DejaVuSans-64"/>
     <use x="453.972656" xlink:href="#DejaVuSans-61"/>
     <use x="515.251953" xlink:href="#DejaVuSans-73"/>
     <use x="567.351562" xlink:href="#DejaVuSans-68"/>
     <use x="630.730469" xlink:href="#DejaVuSans-69"/>
     <use x="658.513672" xlink:href="#DejaVuSans-61"/>
     <use x="719.792969" xlink:href="#DejaVuSans-6e"/>
    </g>
   </g>
   <g id="text_31">
    <g id="patch_57">
     <path d="M 209.13674 158.414478 
L 278.03049 158.414478 
L 278.03049 140.736353 
L 209.13674 140.736353 
z
" style="fill:#ffffff;opacity:0.5;stroke:#000000;stroke-linejoin:miter;"/>
    </g>
    <!-- Lionel Messi -->
    <defs>
     <path d="M 9.8125 72.90625 
L 19.671875 72.90625 
L 19.671875 8.296875 
L 55.171875 8.296875 
L 55.171875 0 
L 9.8125 0 
z
" id="DejaVuSans-4c"/>
    </defs>
    <g transform="translate(213.13674 152.33479)scale(0.1 -0.1)">
     <use xlink:href="#DejaVuSans-4c"/>
     <use x="55.712891" xlink:href="#DejaVuSans-69"/>
     <use x="83.496094" xlink:href="#DejaVuSans-6f"/>
     <use x="144.677734" xlink:href="#DejaVuSans-6e"/>
     <use x="208.056641" xlink:href="#DejaVuSans-65"/>
     <use x="269.580078" xlink:href="#DejaVuSans-6c"/>
     <use x="297.363281" xlink:href="#DejaVuSans-20"/>
     <use x="329.150391" xlink:href="#DejaVuSans-4d"/>
     <use x="415.429688" xlink:href="#DejaVuSans-65"/>
     <use x="476.953125" xlink:href="#DejaVuSans-73"/>
     <use x="529.052734" xlink:href="#DejaVuSans-73"/>
     <use x="581.152344" xlink:href="#DejaVuSans-69"/>
    </g>
   </g>
   <g id="text_32">
    <g id="patch_58">
     <path d="M 235.618057 91.505256 
L 314.830557 91.505256 
L 314.830557 73.827131 
L 235.618057 73.827131 
z
" style="fill:#ffffff;opacity:0.5;stroke:#000000;stroke-linejoin:miter;"/>
    </g>
    <!-- Donald Trump -->
    <g transform="translate(239.618057 85.425569)scale(0.1 -0.1)">
     <use xlink:href="#DejaVuSans-44"/>
     <use x="77.001953" xlink:href="#DejaVuSans-6f"/>
     <use x="138.183594" xlink:href="#DejaVuSans-6e"/>
     <use x="201.5625" xlink:href="#DejaVuSans-61"/>
     <use x="262.841797" xlink:href="#DejaVuSans-6c"/>
     <use x="290.625" xlink:href="#DejaVuSans-64"/>
     <use x="354.101562" xlink:href="#DejaVuSans-20"/>
     <use x="385.888672" xlink:href="#DejaVuSans-54"/>
     <use x="446.753906" xlink:href="#DejaVuSans-72"/>
     <use x="487.867188" xlink:href="#DejaVuSans-75"/>
     <use x="551.246094" xlink:href="#DejaVuSans-6d"/>
     <use x="648.658203" xlink:href="#DejaVuSans-70"/>
    </g>
   </g>
   <g id="text_33">
    <g id="patch_59">
     <path d="M 289.935313 195.07219 
L 323.794688 195.07219 
L 323.794688 177.394065 
L 289.935313 177.394065 
z
" style="fill:#ffffff;opacity:0.5;stroke:#000000;stroke-linejoin:miter;"/>
    </g>
    <!-- Jesus -->
    <g transform="translate(293.935313 188.992502)scale(0.1 -0.1)">
     <use xlink:href="#DejaVuSans-4a"/>
     <use x="29.492188" xlink:href="#DejaVuSans-65"/>
     <use x="91.015625" xlink:href="#DejaVuSans-73"/>
     <use x="143.115234" xlink:href="#DejaVuSans-75"/>
     <use x="206.494141" xlink:href="#DejaVuSans-73"/>
    </g>
   </g>
   <g id="text_34">
    <g id="patch_60">
     <path d="M 302.096318 222.357865 
L 374.915068 222.357865 
L 374.915068 204.67974 
L 302.096318 204.67974 
z
" style="fill:#ffffff;opacity:0.5;stroke:#000000;stroke-linejoin:miter;"/>
    </g>
    <!-- Willow Smith -->
    <defs>
     <path d="M 3.328125 72.90625 
L 13.28125 72.90625 
L 28.609375 11.28125 
L 43.890625 72.90625 
L 54.984375 72.90625 
L 70.3125 11.28125 
L 85.59375 72.90625 
L 95.609375 72.90625 
L 77.296875 0 
L 64.890625 0 
L 49.515625 63.28125 
L 33.984375 0 
L 21.578125 0 
z
" id="DejaVuSans-57"/>
    </defs>
    <g transform="translate(306.096318 216.278178)scale(0.1 -0.1)">
     <use xlink:href="#DejaVuSans-57"/>
     <use x="98.845703" xlink:href="#DejaVuSans-69"/>
     <use x="126.628906" xlink:href="#DejaVuSans-6c"/>
     <use x="154.412109" xlink:href="#DejaVuSans-6c"/>
     <use x="182.195312" xlink:href="#DejaVuSans-6f"/>
     <use x="243.376953" xlink:href="#DejaVuSans-77"/>
     <use x="325.164062" xlink:href="#DejaVuSans-20"/>
     <use x="356.951172" xlink:href="#DejaVuSans-53"/>
     <use x="420.427734" xlink:href="#DejaVuSans-6d"/>
     <use x="517.839844" xlink:href="#DejaVuSans-69"/>
     <use x="545.623047" xlink:href="#DejaVuSans-74"/>
     <use x="584.832031" xlink:href="#DejaVuSans-68"/>
    </g>
   </g>
   <g id="text_35">
    <g id="patch_61">
     <path d="M 336.656542 132.78967 
L 403.636229 132.78967 
L 403.636229 115.111545 
L 336.656542 115.111545 
z
" style="fill:#ffffff;opacity:0.5;stroke:#000000;stroke-linejoin:miter;"/>
    </g>
    <!-- The Beatles -->
    <g transform="translate(340.656542 126.709982)scale(0.1 -0.1)">
     <use xlink:href="#DejaVuSans-54"/>
     <use x="61.083984" xlink:href="#DejaVuSans-68"/>
     <use x="124.462891" xlink:href="#DejaVuSans-65"/>
     <use x="185.986328" xlink:href="#DejaVuSans-20"/>
     <use x="217.773438" xlink:href="#DejaVuSans-42"/>
     <use x="286.376953" xlink:href="#DejaVuSans-65"/>
     <use x="347.900391" xlink:href="#DejaVuSans-61"/>
     <use x="409.179688" xlink:href="#DejaVuSans-74"/>
     <use x="448.388672" xlink:href="#DejaVuSans-6c"/>
     <use x="476.171875" xlink:href="#DejaVuSans-65"/>
     <use x="537.695312" xlink:href="#DejaVuSans-73"/>
    </g>
   </g>
   <g id="text_36">
    <g id="patch_62">
     <path d="M 339.409734 187.598287 
L 464.164422 187.598287 
L 464.164422 169.920162 
L 339.409734 169.920162 
z
" style="fill:#ffffff;opacity:0.5;stroke:#000000;stroke-linejoin:miter;"/>
    </g>
    <!-- Manchester United F.C. -->
    <defs>
     <path d="M 10.6875 12.40625 
L 21 12.40625 
L 21 0 
L 10.6875 0 
z
" id="DejaVuSans-2e"/>
    </defs>
    <g transform="translate(343.409734 181.5186)scale(0.1 -0.1)">
     <use xlink:href="#DejaVuSans-4d"/>
     <use x="86.279297" xlink:href="#DejaVuSans-61"/>
     <use x="147.558594" xlink:href="#DejaVuSans-6e"/>
     <use x="210.9375" xlink:href="#DejaVuSans-63"/>
     <use x="265.917969" xlink:href="#DejaVuSans-68"/>
     <use x="329.296875" xlink:href="#DejaVuSans-65"/>
     <use x="390.820312" xlink:href="#DejaVuSans-73"/>
     <use x="442.919922" xlink:href="#DejaVuSans-74"/>
     <use x="482.128906" xlink:href="#DejaVuSans-65"/>
     <use x="543.652344" xlink:href="#DejaVuSans-72"/>
     <use x="584.765625" xlink:href="#DejaVuSans-20"/>
     <use x="616.552734" xlink:href="#DejaVuSans-55"/>
     <use x="689.746094" xlink:href="#DejaVuSans-6e"/>
     <use x="753.125" xlink:href="#DejaVuSans-69"/>
     <use x="780.908203" xlink:href="#DejaVuSans-74"/>
     <use x="820.117188" xlink:href="#DejaVuSans-65"/>
     <use x="881.640625" xlink:href="#DejaVuSans-64"/>
     <use x="945.117188" xlink:href="#DejaVuSans-20"/>
     <use x="976.904297" xlink:href="#DejaVuSans-46"/>
     <use x="1034.173828" xlink:href="#DejaVuSans-2e"/>
     <use x="1065.960938" xlink:href="#DejaVuSans-43"/>
     <use x="1135.785156" xlink:href="#DejaVuSans-2e"/>
    </g>
   </g>
   <g id="text_37">
    <g id="patch_63">
     <path d="M 377.156677 146.076607 
L 489.698864 146.076607 
L 489.698864 128.398482 
L 377.156677 128.398482 
z
" style="fill:#ffffff;opacity:0.5;stroke:#000000;stroke-linejoin:miter;"/>
    </g>
    <!-- The Big Bang Theory -->
    <g transform="translate(381.156677 139.99692)scale(0.1 -0.1)">
     <use xlink:href="#DejaVuSans-54"/>
     <use x="61.083984" xlink:href="#DejaVuSans-68"/>
     <use x="124.462891" xlink:href="#DejaVuSans-65"/>
     <use x="185.986328" xlink:href="#DejaVuSans-20"/>
     <use x="217.773438" xlink:href="#DejaVuSans-42"/>
     <use x="286.376953" xlink:href="#DejaVuSans-69"/>
     <use x="314.160156" xlink:href="#DejaVuSans-67"/>
     <use x="377.636719" xlink:href="#DejaVuSans-20"/>
     <use x="409.423828" xlink:href="#DejaVuSans-42"/>
     <use x="478.027344" xlink:href="#DejaVuSans-61"/>
     <use x="539.306641" xlink:href="#DejaVuSans-6e"/>
     <use x="602.685547" xlink:href="#DejaVuSans-67"/>
     <use x="666.162109" xlink:href="#DejaVuSans-20"/>
     <use x="697.949219" xlink:href="#DejaVuSans-54"/>
     <use x="759.033203" xlink:href="#DejaVuSans-68"/>
     <use x="822.412109" xlink:href="#DejaVuSans-65"/>
     <use x="883.935547" xlink:href="#DejaVuSans-6f"/>
     <use x="945.117188" xlink:href="#DejaVuSans-72"/>
     <use x="986.230469" xlink:href="#DejaVuSans-79"/>
    </g>
   </g>
   <g id="text_38">
    <g id="patch_64">
     <path d="M 443.491119 224.374633 
L 486.645807 224.374633 
L 486.645807 206.696508 
L 443.491119 206.696508 
z
" style="fill:#ffffff;opacity:0.5;stroke:#000000;stroke-linejoin:miter;"/>
    </g>
    <!-- Thriller -->
    <g transform="translate(447.491119 218.294945)scale(0.1 -0.1)">
     <use xlink:href="#DejaVuSans-54"/>
     <use x="61.083984" xlink:href="#DejaVuSans-68"/>
     <use x="124.462891" xlink:href="#DejaVuSans-72"/>
     <use x="165.576172" xlink:href="#DejaVuSans-69"/>
     <use x="193.359375" xlink:href="#DejaVuSans-6c"/>
     <use x="221.142578" xlink:href="#DejaVuSans-6c"/>
     <use x="248.925781" xlink:href="#DejaVuSans-65"/>
     <use x="310.449219" xlink:href="#DejaVuSans-72"/>
    </g>
   </g>
   <g id="text_39">
    <g id="patch_65">
     <path d="M 462.102125 162.685279 
L 531.316187 162.685279 
L 531.316187 145.007154 
L 462.102125 145.007154 
z
" style="fill:#ffffff;opacity:0.5;stroke:#000000;stroke-linejoin:miter;"/>
    </g>
    <!-- Harry Potter -->
    <defs>
     <path d="M 9.8125 72.90625 
L 19.671875 72.90625 
L 19.671875 43.015625 
L 55.515625 43.015625 
L 55.515625 72.90625 
L 65.375 72.90625 
L 65.375 0 
L 55.515625 0 
L 55.515625 34.71875 
L 19.671875 34.71875 
L 19.671875 0 
L 9.8125 0 
z
" id="DejaVuSans-48"/>
    </defs>
    <g transform="translate(466.102125 156.605592)scale(0.1 -0.1)">
     <use xlink:href="#DejaVuSans-48"/>
     <use x="75.195312" xlink:href="#DejaVuSans-61"/>
     <use x="136.474609" xlink:href="#DejaVuSans-72"/>
     <use x="177.572266" xlink:href="#DejaVuSans-72"/>
     <use x="218.685547" xlink:href="#DejaVuSans-79"/>
     <use x="277.865234" xlink:href="#DejaVuSans-20"/>
     <use x="309.652344" xlink:href="#DejaVuSans-50"/>
     <use x="369.908203" xlink:href="#DejaVuSans-6f"/>
     <use x="431.089844" xlink:href="#DejaVuSans-74"/>
     <use x="470.298828" xlink:href="#DejaVuSans-74"/>
     <use x="509.507812" xlink:href="#DejaVuSans-65"/>
     <use x="571.03125" xlink:href="#DejaVuSans-72"/>
    </g>
   </g>
   <g id="text_40">
    <g id="patch_66">
     <path d="M 495.061567 212.511295 
L 561.63813 212.511295 
L 561.63813 194.83317 
L 495.061567 194.83317 
z
" style="fill:#ffffff;opacity:0.5;stroke:#000000;stroke-linejoin:miter;"/>
    </g>
    <!-- Kama Sutra -->
    <g transform="translate(499.061567 206.431608)scale(0.1 -0.1)">
     <use xlink:href="#DejaVuSans-4b"/>
     <use x="65.560547" xlink:href="#DejaVuSans-61"/>
     <use x="126.839844" xlink:href="#DejaVuSans-6d"/>
     <use x="224.251953" xlink:href="#DejaVuSans-61"/>
     <use x="285.53125" xlink:href="#DejaVuSans-20"/>
     <use x="317.318359" xlink:href="#DejaVuSans-53"/>
     <use x="380.794922" xlink:href="#DejaVuSans-75"/>
     <use x="444.173828" xlink:href="#DejaVuSans-74"/>
     <use x="483.382812" xlink:href="#DejaVuSans-72"/>
     <use x="524.496094" xlink:href="#DejaVuSans-61"/>
    </g>
   </g>
   <g id="text_41">
    <!-- Page popularity by category -->
    <g transform="translate(222.001563 20.88)scale(0.12 -0.12)">
     <use xlink:href="#DejaVuSans-50"/>
     <use x="60.240234" xlink:href="#DejaVuSans-61"/>
     <use x="121.519531" xlink:href="#DejaVuSans-67"/>
     <use x="184.996094" xlink:href="#DejaVuSans-65"/>
     <use x="246.519531" xlink:href="#DejaVuSans-20"/>
     <use x="278.306641" xlink:href="#DejaVuSans-70"/>
     <use x="341.783203" xlink:href="#DejaVuSans-6f"/>
     <use x="402.964844" xlink:href="#DejaVuSans-70"/>
     <use x="466.441406" xlink:href="#DejaVuSans-75"/>
     <use x="529.820312" xlink:href="#DejaVuSans-6c"/>
     <use x="557.603516" xlink:href="#DejaVuSans-61"/>
     <use x="618.882812" xlink:href="#DejaVuSans-72"/>
     <use x="659.996094" xlink:href="#DejaVuSans-69"/>
     <use x="687.779297" xlink:href="#DejaVuSans-74"/>
     <use x="726.988281" xlink:href="#DejaVuSans-79"/>
     <use x="786.167969" xlink:href="#DejaVuSans-20"/>
     <use x="817.955078" xlink:href="#DejaVuSans-62"/>
     <use x="881.431641" xlink:href="#DejaVuSans-79"/>
     <use x="940.611328" xlink:href="#DejaVuSans-20"/>
     <use x="972.398438" xlink:href="#DejaVuSans-63"/>
     <use x="1027.378906" xlink:href="#DejaVuSans-61"/>
     <use x="1088.658203" xlink:href="#DejaVuSans-74"/>
     <use x="1127.867188" xlink:href="#DejaVuSans-65"/>
     <use x="1189.390625" xlink:href="#DejaVuSans-67"/>
     <use x="1252.867188" xlink:href="#DejaVuSans-6f"/>
     <use x="1314.048828" xlink:href="#DejaVuSans-72"/>
     <use x="1355.162109" xlink:href="#DejaVuSans-79"/>
    </g>
   </g>
   <g id="legend_1">
    <g id="patch_67">
     <path d="M 402.595625 78.914375 
L 555.68 78.914375 
Q 557.68 78.914375 557.68 76.914375 
L 557.68 33.88 
Q 557.68 31.88 555.68 31.88 
L 402.595625 31.88 
Q 400.595625 31.88 400.595625 33.88 
L 400.595625 76.914375 
Q 400.595625 78.914375 402.595625 78.914375 
z
" style="fill:#ffffff;opacity:0.8;stroke:#cccccc;stroke-linejoin:miter;"/>
    </g>
    <g id="patch_68">
     <path d="M 404.595625 43.478437 
L 424.595625 43.478437 
L 424.595625 36.478437 
L 404.595625 36.478437 
z
" style="fill:#1f77b4;"/>
    </g>
    <g id="text_42">
     <!-- Most popular page -->
     <g transform="translate(432.595625 43.478437)scale(0.1 -0.1)">
      <use xlink:href="#DejaVuSans-4d"/>
      <use x="86.279297" xlink:href="#DejaVuSans-6f"/>
      <use x="147.460938" xlink:href="#DejaVuSans-73"/>
      <use x="199.560547" xlink:href="#DejaVuSans-74"/>
      <use x="238.769531" xlink:href="#DejaVuSans-20"/>
      <use x="270.556641" xlink:href="#DejaVuSans-70"/>
      <use x="334.033203" xlink:href="#DejaVuSans-6f"/>
      <use x="395.214844" xlink:href="#DejaVuSans-70"/>
      <use x="458.691406" xlink:href="#DejaVuSans-75"/>
      <use x="522.070312" xlink:href="#DejaVuSans-6c"/>
      <use x="549.853516" xlink:href="#DejaVuSans-61"/>
      <use x="611.132812" xlink:href="#DejaVuSans-72"/>
      <use x="652.246094" xlink:href="#DejaVuSans-20"/>
      <use x="684.033203" xlink:href="#DejaVuSans-70"/>
      <use x="747.509766" xlink:href="#DejaVuSans-61"/>
      <use x="808.789062" xlink:href="#DejaVuSans-67"/>
      <use x="872.265625" xlink:href="#DejaVuSans-65"/>
     </g>
    </g>
    <g id="patch_69">
     <path d="M 404.595625 58.156563 
L 424.595625 58.156563 
L 424.595625 51.156563 
L 404.595625 51.156563 
z
" style="fill:#ff7f0e;"/>
    </g>
    <g id="text_43">
     <!-- 10th-most popular page -->
     <g transform="translate(432.595625 58.156563)scale(0.1 -0.1)">
      <use xlink:href="#DejaVuSans-31"/>
      <use x="63.623047" xlink:href="#DejaVuSans-30"/>
      <use x="127.246094" xlink:href="#DejaVuSans-74"/>
      <use x="166.455078" xlink:href="#DejaVuSans-68"/>
      <use x="229.833984" xlink:href="#DejaVuSans-2d"/>
      <use x="265.917969" xlink:href="#DejaVuSans-6d"/>
      <use x="363.330078" xlink:href="#DejaVuSans-6f"/>
      <use x="424.511719" xlink:href="#DejaVuSans-73"/>
      <use x="476.611328" xlink:href="#DejaVuSans-74"/>
      <use x="515.820312" xlink:href="#DejaVuSans-20"/>
      <use x="547.607422" xlink:href="#DejaVuSans-70"/>
      <use x="611.083984" xlink:href="#DejaVuSans-6f"/>
      <use x="672.265625" xlink:href="#DejaVuSans-70"/>
      <use x="735.742188" xlink:href="#DejaVuSans-75"/>
      <use x="799.121094" xlink:href="#DejaVuSans-6c"/>
      <use x="826.904297" xlink:href="#DejaVuSans-61"/>
      <use x="888.183594" xlink:href="#DejaVuSans-72"/>
      <use x="929.296875" xlink:href="#DejaVuSans-20"/>
      <use x="961.083984" xlink:href="#DejaVuSans-70"/>
      <use x="1024.560547" xlink:href="#DejaVuSans-61"/>
      <use x="1085.839844" xlink:href="#DejaVuSans-67"/>
      <use x="1149.316406" xlink:href="#DejaVuSans-65"/>
     </g>
    </g>
    <g id="patch_70">
     <path d="M 404.595625 72.834687 
L 424.595625 72.834687 
L 424.595625 65.834687 
L 404.595625 65.834687 
z
" style="fill:#2ca02c;"/>
    </g>
    <g id="text_44">
     <!-- 30th-most popular page -->
     <g transform="translate(432.595625 72.834687)scale(0.1 -0.1)">
      <use xlink:href="#DejaVuSans-33"/>
      <use x="63.623047" xlink:href="#DejaVuSans-30"/>
      <use x="127.246094" xlink:href="#DejaVuSans-74"/>
      <use x="166.455078" xlink:href="#DejaVuSans-68"/>
      <use x="229.833984" xlink:href="#DejaVuSans-2d"/>
      <use x="265.917969" xlink:href="#DejaVuSans-6d"/>
      <use x="363.330078" xlink:href="#DejaVuSans-6f"/>
      <use x="424.511719" xlink:href="#DejaVuSans-73"/>
      <use x="476.611328" xlink:href="#DejaVuSans-74"/>
      <use x="515.820312" xlink:href="#DejaVuSans-20"/>
      <use x="547.607422" xlink:href="#DejaVuSans-70"/>
      <use x="611.083984" xlink:href="#DejaVuSans-6f"/>
      <use x="672.265625" xlink:href="#DejaVuSans-70"/>
      <use x="735.742188" xlink:href="#DejaVuSans-75"/>
      <use x="799.121094" xlink:href="#DejaVuSans-6c"/>
      <use x="826.904297" xlink:href="#DejaVuSans-61"/>
      <use x="888.183594" xlink:href="#DejaVuSans-72"/>
      <use x="929.296875" xlink:href="#DejaVuSans-20"/>
      <use x="961.083984" xlink:href="#DejaVuSans-70"/>
      <use x="1024.560547" xlink:href="#DejaVuSans-61"/>
      <use x="1085.839844" xlink:href="#DejaVuSans-67"/>
      <use x="1149.316406" xlink:href="#DejaVuSans-65"/>
     </g>
    </g>
   </g>
  </g>
 </g>
 <defs>
  <clipPath id="p9446eea88b">
   <rect height="208.023617" width="511.63" x="51.05" y="26.88"/>
  </clipPath>
 </defs>
</svg>
